<?xml version="1.0" encoding="utf-8"?>
<svg version="1.1" xmlns:xlink="http://www.w3.org/1999/xlink" width="27px" height="29px" xmlns="http://www.w3.org/2000/svg">
  <g transform="matrix(1 0 0 1 -242 -1600 )">
    <path d="M 16.3388671875 16.0576171875  C 16.836914062500004 14.805230034722223  17.085937500000004 13.524522569444445  17.0859375 12.215494791666668  C 17.085937500000004 10.856119791666668  16.772460937500004 9.79253472222222  16.1455078125 9.024739583333332  C 15.5185546875 8.256944444444445  14.654296875000002 7.873046875  13.552734375 7.873046875  C 12.814453125 7.873046875  12.087890625000002 8.06499565972222  11.373046875 8.448893229166668  C 10.658203125 8.832790798611109  10.013671875000002 9.364583333333332  9.439453125 10.044270833333332  C 8.865234375 10.723958333333332  8.399414062500002 11.586154513888886  8.0419921875 12.630859375  C 7.6845703125 13.675564236111109  7.505859375000001 14.808376736111112  7.505859375000001 16.029296875  C 7.505859375000001 17.439019097222225  7.819335937500001 18.527777777777775  8.4462890625 19.295572916666664  C 9.0732421875 20.063368055555554  9.955078125000002 20.447265625  11.091796875 20.447265625  C 12.216796875 20.447265625  13.248046875000002 20.028754340277775  14.185546875 19.191731770833336  C 15.123046875 18.35470920138889  15.840820312500002 17.310004340277775  16.3388671875 16.0576171875  Z M 23.2734375 4.002604166666668  C 25.757812499999996 6.671006944444444  27 10.170138888888886  27 14.5  C 27 15.897135416666664  26.783203125 17.13693576388889  26.349609375 18.219401041666664  C 25.916015625000004 19.30186631944444  25.3388671875 20.15147569444444  24.6181640625 20.768229166666664  C 23.8974609375 21.38498263888889  23.126953125000004 21.853841145833332  22.306640625 22.1748046875  C 21.486328125000004 22.495768229166668  20.63671875 22.668836805555557  19.7578125 22.694010416666668  C 19.6875 22.694010416666668  19.5966796875 22.697157118055557  19.4853515625 22.703450520833332  C 19.3740234375 22.709743923611107  19.277343750000004 22.712890625  19.1953125 22.712890625  C 18.08203125 22.712890625  17.25 22.379340277777775  16.69921875 21.712239583333336  C 16.37109375 21.296875  16.177734375 20.77452256944444  16.119140625 20.145182291666664  C 15.509765625000002 20.975911458333336  14.7392578125 21.66818576388889  13.807617187499998 22.222005208333332  C 12.8759765625 22.775824652777775  11.859375000000002 23.052734375  10.7578125 23.052734375  C 8.87109375 23.052734375  7.4091796875 22.451714409722225  6.3720703125 21.249674479166664  C 5.3349609375 20.04763454861111  4.81640625 18.3515625  4.81640625 16.161458333333336  C 4.81640625 14.185329861111109  5.203125 12.360243055555555  5.9765625 10.686197916666668  C 6.75 9.012152777777777  7.798828125 7.687391493055553  9.123046875 6.7119140625  C 10.447265625 5.736436631944444  11.888671875 5.248697916666668  13.447265625 5.248697916666668  C 14.466796875000002 5.248697916666668  15.375000000000002 5.472113715277777  16.171875 5.9189453125  C 16.96875 6.3657769097222205  17.589843750000004 6.991970486111109  18.03515625 7.797526041666668  L 18.0703125 7.438802083333332  L 18.263671875 6.381510416666668  C 18.275390625000004 6.305989583333332  18.3076171875 6.23046875  18.3603515625 6.154947916666668  C 18.4130859375 6.079427083333332  18.46875 6.041666666666668  18.52734375 6.041666666666668  L 20.6015625 6.041666666666668  C 20.660156250000004 6.041666666666668  20.736328125 6.1108940972222205  20.830078125 6.249348958333332  C 20.888671875 6.312282986111109  20.906250000000004 6.412977430555553  20.8828125 6.551432291666668  L 18.7734375 18.143880208333336  C 18.71484375 18.445963541666664  18.685546875 18.748046875  18.685546875 19.050130208333336  C 18.685546875 19.541015625  18.7587890625 19.86827256944444  18.9052734375 20.031901041666664  C 19.051757812500004 20.19552951388889  19.3125 20.27734375  19.6875 20.27734375  C 20.015625000000004 20.26475694444444  20.349609375 20.230143229166664  20.689453125 20.173502604166664  C 21.029296875000004 20.116861979166664  21.45703125 19.9658203125  21.97265625 19.720377604166664  C 22.488281250000004 19.474934895833336  22.939453125 19.16026475694444  23.326171875 18.7763671875  C 23.712890625 18.392469618055554  24.046875 17.82921006944444  24.328125 17.086588541666664  C 24.609375 16.34396701388889  24.75 15.481770833333336  24.75 14.5  C 24.75 10.824652777777777  23.73046875 7.891927083333332  21.69140625 5.701822916666668  C 19.65234375 3.51171875  16.921875 2.416666666666668  13.5 2.416666666666668  C 11.9765625 2.416666666666668  10.5205078125 2.737630208333332  9.1318359375 3.379557291666668  C 7.743164062500001 4.021484375  6.5478515625 4.880533854166668  5.5458984375 5.956705729166668  C 4.5439453125 7.032877604166668  3.744140625 8.316731770833332  3.146484375 9.808268229166668  C 2.548828125 11.2998046875  2.25 12.863715277777777  2.25 14.5  C 2.25 16.136284722222225  2.548828125 17.7001953125  3.146484375 19.191731770833336  C 3.744140625 20.683268229166664  4.5439453125 21.967122395833332  5.5458984375 23.043294270833332  C 6.5478515625 24.119466145833332  7.743164062500001 24.978515625  9.1318359375 25.620442708333332  C 10.5205078125 26.262369791666668  11.9765625 26.583333333333332  13.5 26.583333333333332  C 16.171875 26.583333333333332  18.544921875 25.677083333333332  20.619140625 23.864583333333332  C 20.748046875000004 23.751302083333332  20.888671875 23.700954861111107  21.041015625 23.713541666666668  C 21.193359375 23.726128472222225  21.31640625 23.801649305555557  21.41015625 23.940104166666668  L 22.130859375 24.865234375  C 22.224609375000004 25.016276041666668  22.265625 25.167317708333332  22.25390625 25.318359375  C 22.230468750000004 25.481987847222225  22.16015625 25.620442708333332  22.04296875 25.733723958333332  C 20.84765625 26.778428819444443  19.514648437500004 27.583984375  18.0439453125 28.150390625  C 16.5732421875 28.716796875  15.058593750000002 29  13.5 29  C 11.671875 29  9.925781250000002 28.616102430555557  8.26171875 27.848307291666668  C 6.597656250000001 27.080512152777775  5.162109375000001 26.048394097222225  3.955078125 24.751953125  C 2.748046875 23.455512152777775  1.7871093750000002 21.913628472222225  1.0722656250000002 20.126302083333336  C 0.3574218750000001 18.33897569444444  0 16.463541666666664  0 14.5  C 0 12.536458333333332  0.3574218750000001 10.661024305555555  1.0722656250000002 8.873697916666668  C 1.7871093750000002 7.086371527777777  2.748046875 5.5444878472222205  3.955078125 4.248046875  C 5.162109375000001 2.9516059027777763  6.597656250000001 1.9194878472222205  8.26171875 1.1516927083333321  C 9.925781250000002 0.3838975694444441  11.671875 0  13.5 0  C 17.53125 0  20.7890625 1.3342013888888848  23.2734375 4.002604166666668  Z " fill-rule="nonzero" fill="#73539d" stroke="none" fill-opacity="0.9921568627450981" transform="matrix(1 0 0 1 242 1600 )" />
  </g>
</svg>