<?xml version="1.0" encoding="utf-8"?>
<svg version="1.1" xmlns:xlink="http://www.w3.org/1999/xlink" width="38px" height="38px" xmlns="http://www.w3.org/2000/svg">
  <g transform="matrix(1 0 0 1 -360 -466 )">
    <path d="M 15.833333333333334 17.416666666666668  L 15.833333333333334 23.75  L 22.166666666666668 20.583333333333336  L 15.833333333333334 17.416666666666668  Z M 13 15.462239583333332  L 25 9.12890625  L 25 22.537760416666664  L 13 28.87109375  L 13 15.462239583333332  Z M 30.65234375 25.75390625  C 31.856336805555557 23.69227430555555  32.45833333333333 21.440972222222225  32.45833333333333 19  C 32.45833333333333 16.559027777777775  31.856336805555557 14.307725694444445  30.65234375 12.24609375  C 29.44835069444445 10.184461805555552  27.81553819444445 8.551649305555552  25.75390625 7.34765625  C 23.692274305555557 6.143663194444444  21.440972222222225 5.541666666666668  19 5.541666666666668  C 16.55902777777778 5.541666666666668  14.307725694444446 6.143663194444444  12.24609375 7.34765625  C 10.184461805555555 8.551649305555552  8.551649305555555 10.184461805555552  7.34765625 12.24609375  C 6.143663194444445 14.307725694444445  5.541666666666667 16.559027777777775  5.541666666666667 19  C 5.541666666666667 21.440972222222225  6.143663194444445 23.69227430555555  7.34765625 25.75390625  C 8.551649305555555 27.81553819444444  10.184461805555555 29.448350694444443  12.24609375 30.65234375  C 14.307725694444446 31.856336805555557  16.55902777777778 32.45833333333333  19 32.45833333333333  C 21.440972222222225 32.45833333333333  23.692274305555557 31.856336805555557  25.75390625 30.65234375  C 27.81553819444445 29.448350694444443  29.44835069444445 27.81553819444444  30.65234375 25.75390625  Z M 35.45182291666667 9.462890625  C 37.150607638888886 12.373914930555552  38 15.552951388888884  38 19  C 38 22.44704861111111  37.150607638888886 25.62608506944444  35.45182291666667 28.537109375  C 33.75303819444445 31.448133680555557  31.448133680555557 33.75303819444444  28.537109375 35.45182291666667  C 25.62608506944445 37.15060763888889  22.44704861111111 38  19 38  C 15.55295138888889 38  12.373914930555555 37.15060763888889  9.462890625 35.45182291666667  C 6.551866319444445 33.75303819444444  4.246961805555556 31.448133680555557  2.5481770833333335 28.537109375  C 0.8493923611111109 25.62608506944444  0 22.44704861111111  0 19  C 0 15.552951388888884  0.8493923611111109 12.373914930555552  2.5481770833333335 9.462890625  C 4.246961805555556 6.551866319444444  6.551866319444445 4.246961805555552  9.462890625 2.548177083333332  C 12.373914930555555 0.8493923611111078  15.55295138888889 0  19 0  C 22.44704861111111 0  25.62608506944445 0.8493923611111078  28.537109375 2.548177083333332  C 31.448133680555557 4.246961805555552  33.75303819444445 6.551866319444444  35.45182291666667 9.462890625  Z " fill-rule="nonzero" fill="#73539d" stroke="none" fill-opacity="0.8901960784313725" transform="matrix(1 0 0 1 360 466 )" />
  </g>
</svg>