<?xml version="1.0" encoding="utf-8"?>
<svg version="1.1" xmlns:xlink="http://www.w3.org/1999/xlink" width="42px" height="28px" xmlns="http://www.w3.org/2000/svg">
  <g transform="matrix(1 0 0 1 -279 -1430 )">
    <path d="M 35.309895833333336 12.341145833333334  L 36.00260416666667 15.713541666666668  L 33.486979166666664 15.713541666666668  C 33.65711805555556 15.263888888888888  34.05815972222223 14.176215277777775  34.69010416666667 12.450520833333334  L 34.744791666666664 12.286458333333334  C 34.79340277777778 12.164930555555554  34.85416666666667 12.006944444444443  34.927083333333336 11.8125  C 35 11.618055555555554  35.0546875 11.460069444444443  35.091145833333336 11.338541666666666  L 35.309895833333336 12.341145833333334  Z M 2.333333333333333 8.403645833333334  C 6.112847222222223 9.363715277777779  8.561631944444445 11.405381944444443  9.6796875 14.528645833333332  L 8.622395833333334 9.151041666666666  C 8.488715277777779 8.494791666666666  8.032986111111112 8.166666666666666  7.255208333333333 8.166666666666666  L 2.3697916666666665 8.166666666666666  L 2.333333333333333 8.403645833333334  Z M 16.151041666666668 8.166666666666666  L 12.942708333333332 8.166666666666666  L 9.989583333333332 16.151041666666668  L 9.6796875 14.528645833333332  C 9.363715277777779 13.677951388888888  8.847222222222223 12.891059027777779  8.130208333333334 12.16796875  C 7.4131944444444455 11.444878472222221  6.617187500000002 10.907118055555554  5.7421875 10.5546875  L 8.203125 19.8515625  L 11.393229166666666 19.8515625  L 16.151041666666668 8.166666666666666  Z M 17.372395833333332 8.166666666666666  L 15.4765625 19.869791666666668  L 18.502604166666664 19.869791666666668  L 20.3984375 8.166666666666666  L 17.372395833333332 8.166666666666666  Z M 29.057291666666668 10.9921875  L 29.4765625 8.458333333333334  C 28.638020833333336 8.130208333333334  27.732638888888893 7.966145833333334  26.760416666666668 7.966145833333334  C 25.265625 7.966145833333334  24.044270833333332 8.324652777777775  23.096354166666664 9.041666666666666  C 22.1484375 9.758680555555554  21.66840277777778 10.688368055555554  21.65625 11.830729166666666  C 21.644097222222225 13.0703125  22.525173611111114 14.127604166666668  24.299479166666668 15.002604166666668  C 24.8828125 15.282118055555557  25.289930555555557 15.53125  25.520833333333332 15.75  C 25.75173611111111 15.96875  25.8671875 16.205729166666668  25.8671875 16.4609375  C 25.8671875 16.825520833333332  25.684895833333332 17.105034722222218  25.3203125 17.299479166666668  C 24.955729166666668 17.493923611111107  24.536458333333332 17.591145833333332  24.0625 17.591145833333332  C 23.017361111111114 17.591145833333332  22.069444444444446 17.390625  21.21875 16.989583333333332  L 20.817708333333332 16.7890625  L 20.3984375 19.4140625  C 21.29774305555556 19.827256944444443  22.421875 20.033854166666668  23.770833333333332 20.033854166666668  C 25.350694444444446 20.046006944444443  26.617621527777782 19.6875  27.571614583333332 18.958333333333332  C 28.52560763888889 18.229166666666668  29.014756944444443 17.256944444444443  29.0390625 16.041666666666668  C 29.039062500000004 14.753472222222218  28.18836805555556 13.696180555555554  26.486979166666668 12.869791666666666  C 25.89149305555556 12.565972222222221  25.460069444444446 12.310763888888888  25.192708333333332 12.104166666666666  C 24.925347222222225 11.897569444444443  24.791666666666668 11.666666666666666  24.791666666666668 11.411458333333334  C 24.791666666666668 11.144097222222221  24.940538194444446 10.910156249999996  25.23828125 10.709635416666666  C 25.536024305555557 10.509114583333332  25.964409722222225 10.408854166666666  26.5234375 10.408854166666666  C 27.374131944444443 10.396701388888888  28.127604166666668 10.542534722222221  28.783854166666668 10.846354166666666  L 29.057291666666668 10.9921875  Z M 39.666666666666664 19.869791666666668  L 37.223958333333336 8.166666666666666  L 34.890625 8.166666666666666  C 34.10069444444444 8.166666666666666  33.572048611111114 8.494791666666666  33.3046875 9.151041666666666  L 28.8203125 19.869791666666668  L 31.9921875 19.869791666666668  L 32.630208333333336 18.119791666666668  L 36.49479166666667 18.119791666666668  C 36.55555555555556 18.387152777777775  36.677083333333336 18.970486111111107  36.859375 19.869791666666668  L 39.666666666666664 19.869791666666668  Z M 41.307291666666664 0.6927083333333344  C 41.76909722222223 1.1545138888888875  42 1.7013888888888875  42 2.3333333333333344  L 42 25.666666666666664  C 42 26.298611111111114  41.76909722222223 26.845486111111114  41.307291666666664 27.307291666666664  C 40.845486111111114 27.76909722222222  40.29861111111112 28  39.666666666666664 28  L 2.333333333333333 28  C 1.701388888888889 28  1.1545138888888888 27.76909722222222  0.6927083333333334 27.307291666666664  C 0.2309027777777778 26.845486111111114  0 26.298611111111114  0 25.666666666666664  L 0 2.3333333333333344  C 0 1.7013888888888875  0.2309027777777778 1.1545138888888875  0.6927083333333334 0.6927083333333344  C 1.1545138888888888 0.23090277777777501  1.701388888888889 0  2.333333333333333 0  L 39.666666666666664 0  C 40.29861111111112 0  40.845486111111114 0.23090277777777501  41.307291666666664 0.6927083333333344  Z " fill-rule="nonzero" fill="#ffffff" stroke="none" transform="matrix(1 0 0 1 279 1430 )" />
  </g>
</svg>