<?xml version="1.0" encoding="utf-8"?>
<svg version="1.1" xmlns:xlink="http://www.w3.org/1999/xlink" width="23px" height="15px" xmlns="http://www.w3.org/2000/svg">
  <g transform="matrix(1 0 0 1 -334 -1407 )">
    <path d="M 0.4691840277777778 14.541015625  C 0.15639467592592593 14.235026041666668  0 13.8671875  0 13.4375  L 0 7.5  L 23 7.5  L 23 13.4375  C 23 13.8671875  22.843605324074076 14.235026041666668  22.53081597222222 14.541015625  C 22.218026620370374 14.847005208333334  21.84201388888889 15  21.40277777777778 15  L 1.5972222222222223 15  C 1.1579861111111112 15  0.7819733796296297 14.847005208333334  0.4691840277777778 14.541015625  Z M 10.222222222222221 11.25  L 6.388888888888889 11.25  L 6.388888888888889 12.5  L 10.222222222222221 12.5  L 10.222222222222221 11.25  Z M 5.111111111111111 11.25  L 2.5555555555555554 11.25  L 2.5555555555555554 12.5  L 5.111111111111111 12.5  L 5.111111111111111 11.25  Z M 1.5972222222222223 0  L 21.40277777777778 0  C 21.84201388888889 0  22.218026620370374 0.1529947916666652  22.53081597222222 0.45898437500000056  C 22.843605324074076 0.7649739583333326  23 1.1328125000000004  23 1.5624999999999996  L 23 4  L 0 4  L 0 1.5624999999999996  C 0 1.1328125000000004  0.15639467592592593 0.7649739583333326  0.4691840277777778 0.45898437500000056  C 0.7819733796296297 0.1529947916666652  1.1579861111111112 0  1.5972222222222223 0  Z " fill-rule="nonzero" fill="#ffffff" stroke="none" transform="matrix(1 0 0 1 334 1407 )" />
  </g>
</svg>