<?xml version="1.0" encoding="utf-8"?>
<svg version="1.1" xmlns:xlink="http://www.w3.org/1999/xlink" width="27px" height="23px" xmlns="http://www.w3.org/2000/svg">
  <g transform="matrix(1 0 0 1 -412 -937 )">
    <path d="M 12.591928251121077 17.25  L 13.439461883408072 17.25  L 15.19506726457399 15.355113636363637  L 12.894618834080717 12.87215909090909  L 11.1390134529148 14.767045454545455  L 11.1390134529148 15.681818181818183  L 12.591928251121077 15.681818181818183  L 12.591928251121077 17.25  Z M 20.083520179372197 6.027698863636364  C 20.25504484304933 5.842566287878785  20.260089686098656 5.662878787878785  20.09865470852018 5.488636363636364  C 19.937219730941706 5.314393939393938  19.770739910313903 5.319839015151513  19.59921524663677 5.504971590909092  L 14.30213004484305 11.222301136363637  C 14.13060538116592 11.407433712121213  14.125560538116591 11.58712121212121  14.286995515695066 11.761363636363637  C 14.448430493273545 11.93560606060606  14.614910313901348 11.93016098484848  14.786434977578477 11.74502840909091  L 20.083520179372197 6.027698863636364  Z M 21.006726457399104 14.718039772727272  C 21.2085201793722 14.80516098484848  21.309417040358742 14.963068181818183  21.309417040358742 15.191761363636363  L 21.309417040358742 18.295454545454543  C 21.309417040358742 19.591382575757574  20.883127802690584 20.699455492424242  20.030549327354258 21.619673295454543  C 19.17797085201794 22.539891098484848  18.15134529147982 23  16.95067264573991 23  L 4.358744394618834 23  C 3.158071748878924 23  2.1314461883408073 22.539891098484848  1.2788677130044843 21.619673295454543  C 0.4262892376681614 20.699455492424242  0 19.591382575757574  0 18.295454545454543  L 0 4.704545454545455  C 0 3.4086174242424216  0.4262892376681614 2.3005445075757565  1.2788677130044843 1.3803267045454555  C 2.1314461883408073 0.46010890151514927  3.158071748878924 0  4.358744394618834 0  L 16.95067264573991 0  C 17.586322869955158 0  18.176569506726455 0.1361268939393927  18.721412556053814 0.40838068181818066  C 18.87275784753363 0.4846117424242409  18.963565022421523 0.6098484848484843  18.993834080717487 0.7840909090909084  C 19.02410313901345 0.9692234848484843  18.978699551569505 1.1271306818181808  18.85762331838565 1.2578125  L 18.116031390134527 2.0582386363636362  C 17.974775784753366 2.2107007575757565  17.81334080717489 2.2542613636363638  17.631726457399104 2.1889204545454555  C 17.399663677130047 2.1235795454545445  17.172645739910315 2.0909090909090917  16.95067264573991 2  L 4.358744394618834 2  C 3.6928251121076237 2.0909090909090917  3.122757847533633 2.346827651515149  2.648542600896861 2.8586647727272725  C 2.17432735426009 3.3705018939393927  1.937219730941704 3.9857954545454555  2 4.704545454545455  L 2 18.295454545454543  C 1.937219730941704 19.014204545454543  2.17432735426009 19.629498106060602  2.648542600896861 20.141335227272727  C 3.122757847533633 20.653172348484848  3.6928251121076237 20.90909090909091  4.358744394618834 21  L 16.95067264573991 21  C 17.616591928251122 20.90909090909091  18.18665919282511 20.653172348484848  18.660874439461885 20.141335227272727  C 19.135089686098656 19.629498106060602  19.37219730941704 19.014204545454543  19.37219730941704 18.295454545454543  L 19.37219730941704 16.23721590909091  C 19.37219730941704 16.095643939393938  19.41760089686099 15.975852272727272  19.508408071748878 15.87784090909091  L 20.47701793721973 14.832386363636363  C 20.628363228699552 14.66903409090909  20.80493273542601 14.63091856060606  21.006726457399104 14.718039772727272  Z M 9.68609865470852 14.113636363636363  L 19.856502242152466 3.1363636363636362  L 24.2152466367713 7.840909090909092  L 14.044843049327353 18.818181818181817  L 9.68609865470852 18.818181818181817  L 9.68609865470852 14.113636363636363  Z M 27 4.181818181818181  C 27 4.61742424242424  26.858744394618835 4.987689393939393  26.576233183856502 5.292613636363636  L 25.183856502242154 6.795454545454545  L 20.82511210762332 2.0909090909090917  L 22.21748878923767 0.5880681818181807  C 22.5 0.2831439393939372  22.84304932735426 0.13068181818181934  23.246636771300448 0.13068181818181934  C 23.650224215246638 0.13068181818181934  23.9932735426009 0.2831439393939372  24.27578475336323 0.5880681818181807  L 26.576233183856502 3.0710227272727275  C 26.858744394618835 3.375946969696966  27 3.74621212121212  27 4.181818181818181  Z " fill-rule="nonzero" fill="#73539d" stroke="none" transform="matrix(1 0 0 1 412 937 )" />
  </g>
</svg>