<?xml version="1.0" encoding="utf-8"?>
<svg version="1.1" xmlns:xlink="http://www.w3.org/1999/xlink" width="39px" height="31px" xmlns="http://www.w3.org/2000/svg">
  <g transform="matrix(1 0 0 1 -25 -1329 )">
    <path d="M 36.823660714285715 11.911221590909092  C 37.650669642857146 11.338778409090908  38.37611607142858 10.700284090909092  39 9.995738636363635  L 39 27.477272727272727  C 39 28.446022727272727  38.65904017857143 29.27533143939394  37.977120535714285 29.965198863636367  C 37.29520089285715 30.655066287878785  36.47544642857144 31  35.51785714285714 31  L 3.482142857142857 31  C 2.5245535714285716 31  1.7047991071428572 30.655066287878785  1.0228794642857144 29.965198863636367  C 0.34095982142857156 29.27533143939394  0 28.446022727272727  0 27.477272727272727  L 0 9.995738636363635  C 0.6383928571428573 10.71496212121212  1.3710937500000002 11.353456439393936  2.198102678571429 11.911221590909092  C 7.450334821428573 15.522017045454547  11.055803571428571 18.053977272727273  13.014508928571429 19.507102272727273  C 13.841517857142858 20.123579545454547  14.51255580357143 20.604285037878785  15.027622767857142 20.94921875  C 15.542689732142858 21.294152462121207  16.228236607142858 21.646425189393938  17.084263392857142 22.006036931818183  C 17.94029017857143 22.365648674242422  18.73828125 22.545454545454547  19.478236607142858 22.545454545454547  L 19.5 22.545454545454547  L 19.521763392857142 22.545454545454547  C 20.261718750000004 22.545454545454547  21.059709821428573 22.365648674242422  21.915736607142858 22.006036931818183  C 22.77176339285715 21.646425189393938  23.45731026785715 21.294152462121207  23.972377232142858 20.94921875  C 24.487444196428573 20.604285037878785  25.158482142857142 20.123579545454547  25.985491071428573 19.507102272727273  C 28.452008928571434 17.701704545454547  32.064732142857146 15.169744318181818  36.823660714285715 11.911221590909092  Z M 37.966238839285715 1.034801136363635  C 38.65541294642857 1.7246685606060579  39 2.553977272727273  39 3.522727272727273  C 39 4.6822916666666625  38.64453125 5.790482954545454  37.93359375 6.847301136363635  C 37.22265625 7.904119318181819  36.33761160714286 8.806818181818182  35.27845982142858 9.555397727272727  C 29.823102678571434 13.386363636363635  26.42801339285715 15.771543560606062  25.093191964285715 16.7109375  C 24.948102678571434 16.81368371212121  24.639787946428573 17.037523674242422  24.168247767857142 17.382457386363637  C 23.696707589285715 17.727391098484848  23.30496651785715 18.006273674242422  22.993024553571427 18.219105113636363  C 22.681082589285715 18.4319365530303  22.303850446428577 18.670454545454547  21.861328125 18.934659090909093  C 21.41880580357143 19.198863636363637  21.001674107142858 19.397017045454547  20.609933035714285 19.529119318181817  C 20.218191964285715 19.661221590909093  19.85546875 19.727272727272727  19.521763392857142 19.727272727272727  L 19.5 19.727272727272727  L 19.478236607142858 19.727272727272727  C 19.14453125 19.727272727272727  18.78180803571429 19.661221590909093  18.39006696428571 19.529119318181817  C 17.998325892857142 19.397017045454547  17.581194196428573 19.198863636363637  17.138671875 18.934659090909093  C 16.69614955357143 18.670454545454547  16.318917410714285 18.4319365530303  16.00697544642857 18.219105113636363  C 15.695033482142858 18.006273674242422  15.303292410714288 17.727391098484848  14.831752232142858 17.382457386363637  C 14.36021205357143 17.037523674242422  14.051897321428575 16.81368371212121  13.906808035714286 16.7109375  C 12.586495535714286 15.771543560606062  10.685825892857142 14.432173295454547  8.204799107142856 12.692826704545453  C 5.723772321428571 10.953480113636362  4.236607142857143 9.90767045454545  3.7433035714285716 9.555397727272727  C 2.84375 8.93892045454545  1.994977678571429 8.091264204545453  1.1969866071428574 7.012428977272727  C 0.39899553571428586 5.93359375  0 4.931818181818181  0 4.007102272727273  C 0 2.862215909090908  0.30106026785714296 1.908143939393935  0.9031808035714287 1.144886363636365  C 1.5053013392857146 0.38162878787878496  2.3649553571428577 0  3.482142857142857 0  L 35.51785714285714 0  C 36.4609375 0  37.27706473214286 0.34493371212120816  37.966238839285715 1.034801136363635  Z " fill-rule="nonzero" fill="#ffffff" stroke="none" transform="matrix(1 0 0 1 25 1329 )" />
  </g>
</svg>