<?xml version="1.0" encoding="utf-8"?>
<svg version="1.1" xmlns:xlink="http://www.w3.org/1999/xlink" width="21px" height="20px" xmlns="http://www.w3.org/2000/svg">
  <g transform="matrix(1 0 0 1 -228 -785 )">
    <path d="M 20.29326923076923 7.170762444864525  C 20.764423076923077 7.246376811594204  21 7.439613526570048  21 7.750472589792061  C 21 7.935307708464608  20.890625 8.13694601974375  20.671875 8.355387523629489  L 16.090745192307693 12.81663516068053  L 17.17608173076923 19.117832388153747  C 17.184495192307693 19.176643562276833  17.188701923076923 19.260659525309805  17.188701923076923 19.369880277252676  C 17.188701923076923 19.546313799621927  17.14453125 19.69544213400546  17.056189903846153 19.817265280403277  C 16.967848557692307 19.939088426801092  16.83954326923077 20  16.671274038461537 20  C 16.51141826923077 20  16.343149038461537 19.949590422180215  16.166466346153847 19.848771266540645  L 10.5 16.874606175173284  L 4.833533653846153 19.848771266540645  C 4.6484375 19.949590422180215  4.480168269230769 20  4.328725961538462 20  C 4.152043269230769 20  4.01953125 19.939088426801092  3.9311899038461537 19.817265280403277  C 3.842848557692308 19.69544213400546  3.7986778846153846 19.546313799621927  3.7986778846153846 19.369880277252676  C 3.7986778846153846 19.31947069943289  3.8070913461538467 19.235454736399916  3.823918269230769 19.117832388153747  L 4.9092548076923075 12.81663516068053  L 0.3155048076923077 8.355387523629489  C 0.10516826923076922 8.128544423440454  0 7.926906112161312  0 7.750472589792061  C 0 7.439613526570048  0.23557692307692304 7.246376811594204  0.7067307692307692 7.170762444864525  L 7.0420673076923075 6.250787649653433  L 9.881610576923077 0.516698172652803  C 10.041466346153847 0.17223272421760027  10.247596153846153 0  10.5 0  C 10.752403846153845 0  10.958533653846153 0.17223272421760027  11.118389423076923 0.516698172652803  L 13.957932692307693 6.250787649653433  L 20.29326923076923 7.170762444864525  Z " fill-rule="nonzero" fill="#f7b400" stroke="none" fill-opacity="0.9921568627450981" transform="matrix(1 0 0 1 228 785 )" />
  </g>
</svg>