<?xml version="1.0" encoding="utf-8"?>
<svg version="1.1" xmlns:xlink="http://www.w3.org/1999/xlink" width="14px" height="27px" xmlns="http://www.w3.org/2000/svg">
  <g transform="matrix(1 0 0 1 -21 -1686 )">
    <path d="M 10.305555555555557 0  C 11.893518518518519 0  13.125 0.06490384615384592  14 0.19471153846153777  L 14 4.478365384615383  L 11.456018518518519 4.478365384615383  C 10.527006172839508 4.478365384615383  9.900462962962964 4.673076923076924  9.57638888888889 5.0625  C 9.252314814814815 5.451923076923076  9.090277777777779 6.036057692307692  9.090277777777779 6.814903846153846  L 9.090277777777779 9.881610576923075  L 13.837962962962964 9.881610576923075  L 13.206018518518519 14.684495192307692  L 9 14.684495192307692  L 9 27  L 4.131944444444445 27  L 4.131944444444445 14.684495192307692  L 0 14.684495192307692  L 0 9.881610576923075  L 4.131944444444445 9.881610576923075  L 4.131944444444445 6.344350961538463  C 4.131944444444445 4.33233173076923  4.693672839506173 2.771935096153845  5.81712962962963 1.6631610576923082  C 6.940586419753087 0.5543870192307714  8.43672839506173 0  10.305555555555557 0  Z " fill-rule="nonzero" fill="#73539d" stroke="none" transform="matrix(1 0 0 1 21 1686 )" />
  </g>
</svg>