<?xml version="1.0" encoding="utf-8"?>
<svg version="1.1" xmlns:xlink="http://www.w3.org/1999/xlink" width="32px" height="32px" xmlns="http://www.w3.org/2000/svg">
  <g transform="matrix(1 0 0 1 -345 -126 )">
    <path d="M 30.504249291784703 0  C 31.138810198300284 0  31.584513692162417 0.29545454545454675  31.841359773371106 0.8863636363636367  C 32.098205854579795 1.5075757575757542  31.992445703493864 2.0378787878787854  31.524079320113316 2.4772727272727266  L 20 13.681818181818183  L 20 30.545454545454547  C 20.35127478753541 31.181818181818183  20.056657223796034 31.62878787878788  19.467422096317282 31.886363636363637  C 19.2710103871577 31.96212121212121  19.08215297450425 32  18.900849858356942 32  C 18.492917847025495 32  18.152974504249293 31.85606060606061  17.88101983002833 31.568181818181817  L 12.079320113314447 25.75  C 11.792256846081209 25.46212121212121  11.648725212464589 25.121212121212118  12 24.727272727272727  L 12 13.681818181818183  L 0.47592067988668557 2.4772727272727266  C 0.007554296506137859 2.0378787878787854  -0.09820585457979226 1.5075757575757542  0.15864022662889518 0.8863636363636367  C 0.41548630783758267 0.29545454545454675  0.8611898016997167 0  1.4957507082152974 0  L 30.504249291784703 0  Z " fill-rule="nonzero" fill="#73539d" stroke="none" fill-opacity="0.9921568627450981" transform="matrix(1 0 0 1 345 126 )" />
  </g>
</svg>