<?xml version="1.0" encoding="utf-8"?>
<svg version="1.1" xmlns:xlink="http://www.w3.org/1999/xlink" width="75px" height="75px" xmlns="http://www.w3.org/2000/svg">
  <g transform="matrix(1 0 0 1 -41 -12 )">
    <path d="M 52.39955357142857 65.98074776785714  C 57.003348214285715 63.53934151785715  60.78404017857144 60.22600446428571  63.741629464285715 56.040736607142854  C 63.12779017857144 51.71595982142857  61.90708705357143 48.123604910714285  60.079520089285715 45.263671875  C 58.251953125 42.403738839285715  55.678013392857146 40.75055803571428  52.357700892857146 40.30412946428571  C 50.48828125 42.36886160714285  48.263113839285715 43.98018973214285  45.682198660714285 45.13811383928571  C 43.10128348214287 46.29603794642857  40.37388392857143 46.875  37.5 46.875  C 34.62611607142857 46.875  31.898716517857146 46.29603794642857  29.317801339285715 45.13811383928571  C 26.73688616071429 43.98018973214285  24.51171875 42.36886160714285  22.642299107142858 40.30412946428571  C 19.321986607142858 40.75055803571428  16.748046875 42.403738839285715  14.920479910714286 45.263671875  C 13.092912946428573 48.123604910714285  11.872209821428571 51.71595982142857  11.258370535714286 56.040736607142854  C 14.215959821428571 60.22600446428571  17.996651785714285 63.53934151785715  22.600446428571427 65.98074776785714  C 27.204241071428573 68.42215401785714  32.17075892857143 69.64285714285714  37.5 69.64285714285714  C 42.82924107142858 69.64285714285714  47.79575892857143 68.42215401785714  52.39955357142857 65.98074776785714  Z M 48.863002232142854 38.148716517857146  C 52.001953125 35.009765625  53.57142857142857 31.22209821428572  53.57142857142857 26.78571428571428  C 53.57142857142857 22.349330357142854  52.001953125 18.561662946428573  48.863002232142854 15.422712053571427  C 45.724051339285715 12.283761160714283  41.93638392857143 10.714285714285717  37.5 10.714285714285717  C 33.06361607142857 10.714285714285717  29.275948660714285 12.283761160714283  26.136997767857142 15.422712053571427  C 22.998046875 18.561662946428573  21.428571428571427 22.349330357142854  21.428571428571427 26.78571428571428  C 21.428571428571427 31.22209821428572  22.998046875 35.009765625  26.136997767857142 38.148716517857146  C 29.275948660714285 41.28766741071429  33.06361607142857 42.857142857142854  37.5 42.857142857142854  C 41.93638392857143 42.857142857142854  45.724051339285715 41.28766741071429  48.863002232142854 38.148716517857146  Z M 72.02845982142857 22.935267857142854  C 74.00948660714286 27.566964285714278  75 32.421875  75 37.5  C 75 42.57812499999999  74.00948660714286 47.42606026785713  72.02845982142857 52.04380580357143  C 70.04743303571429 56.661551339285715  67.38978794642858 60.65150669642857  64.05552455357143 64.013671875  C 60.72126116071429 67.37583705357142  56.73828125000001 70.04743303571429  52.10658482142857 72.02845982142857  C 47.474888392857146 74.00948660714286  42.606026785714285 75  37.5 75  C 32.421875 75  27.56696428571429 74.00948660714286  22.935267857142858 72.02845982142857  C 18.30357142857143 70.04743303571429  14.313616071428571 67.3828125  10.965401785714286 64.03459821428571  C 7.6171875 60.68638392857143  4.952566964285714 56.69642857142857  2.9715401785714284 52.064732142857146  C 0.9905133928571427 47.433035714285715  0 42.57812499999999  0 37.5  C 0 32.421875  0.9905133928571427 27.566964285714278  2.9715401785714284 22.935267857142854  C 4.952566964285714 18.303571428571423  7.6171875 14.313616071428573  10.965401785714286 10.965401785714283  C 14.313616071428571 7.6171875  18.30357142857143 4.952566964285713  22.935267857142858 2.9715401785714275  C 27.56696428571429 0.9905133928571425  32.421875 0  37.5 0  C 42.578125 0  47.43303571428572 0.9905133928571425  52.064732142857146 2.9715401785714275  C 56.69642857142858 4.952566964285713  60.68638392857143 7.6171875  64.03459821428572 10.965401785714283  C 67.38281250000001 14.313616071428573  70.04743303571429 18.303571428571423  72.02845982142857 22.935267857142854  Z " fill-rule="nonzero" fill="#73539d" stroke="none" transform="matrix(1 0 0 1 41 12 )" />
  </g>
</svg>