<?xml version="1.0" encoding="utf-8"?>
<svg version="1.1" xmlns:xlink="http://www.w3.org/1999/xlink" width="50px" height="45px" xmlns="http://www.w3.org/2000/svg">
  <g>
    <path d="M 41.183035714285715 24.140624999999996  C 44.680059523809526 20.468749999999996  46.42857142857143 16.9921875  46.42857142857143 13.7109375  C 46.42857142857143 12.12890625  46.22860863095239 10.732421874999998  45.828683035714285 9.521484374999998  C 45.42875744047619 8.310546874999995  44.917224702380956 7.348632812499998  44.29408482142857 6.6357421875  C 43.6709449404762 5.922851562499997  42.91294642857144 5.341796874999999  42.020089285714285 4.892578125000002  C 41.127232142857146 4.443359374999994  40.25297619047619 4.140624999999998  39.39732142857143 3.9843749999999982  C 38.54166666666667 3.828124999999994  37.630208333333336 3.7500000000000018  36.66294642857143 3.7500000000000018  C 35.695684523809526 3.7500000000000018  34.654017857142854 3.9990234375  33.53794642857143 4.497070312500002  C 32.421875 4.995117187499998  31.394159226190478 5.6201171874999964  30.454799107142854 6.3720703125  C 29.515438988095244 7.124023437499994  28.7109375 7.827148437499994  28.041294642857146 8.4814453125  C 27.371651785714292 9.135742187499996  26.813616071428577 9.736328125  26.3671875 10.283203125  C 26.032366071428577 10.712890624999996  25.576636904761905 10.927734374999998  25 10.927734374999998  C 24.423363095238095 10.927734374999998  23.967633928571427 10.712890624999996  23.6328125 10.283203125  C 23.186383928571427 9.736328125  22.628348214285715 9.135742187499996  21.958705357142858 8.4814453125  C 21.2890625 7.827148437499994  20.484561011904763 7.124023437499994  19.545200892857142 6.3720703125  C 18.605840773809526 5.6201171874999964  17.578125 4.995117187499998  16.462053571428573 4.497070312500002  C 15.345982142857142 3.9990234375  14.30431547619048 3.7500000000000018  13.337053571428573 3.7500000000000018  C 12.369791666666668 3.7500000000000018  11.458333333333336 3.828124999999994  10.602678571428571 3.9843749999999982  C 9.74702380952381 4.140624999999998  8.872767857142858 4.443359374999994  7.9799107142857135 4.892578125000002  C 7.087053571428571 5.341796874999999  6.329055059523809 5.922851562499997  5.705915178571429 6.6357421875  C 5.082775297619048 7.348632812499998  4.571242559523809 8.310546874999995  4.171316964285714 9.521484374999998  C 3.77139136904762 10.732421874999998  3.571428571428571 12.12890625  3.571428571428571 13.7109375  C 3.571428571428571 16.9921875  5.310639880952381 20.458984375  8.7890625 24.111328125000004  L 25 40.517578125  L 41.183035714285715 24.140624999999996  Z M 46.456473214285715 3.6328124999999982  C 48.818824404761905 6.054687499999997  50 9.414062499999998  50 13.7109375  C 50 18.027343749999996  47.87016369047619 22.421874999999996  43.61049107142857 26.89453125  L 26.22767857142857 44.47265625  C 25.892857142857146 44.82421875  25.483630952380953 45  25 45  C 24.51636904761905 45  24.10714285714286 44.82421875  23.772321428571427 44.47265625  L 6.361607142857142 26.835937500000004  C 6.175595238095238 26.6796875  5.9198288690476195 26.425781249999996  5.594308035714286 26.074218749999996  C 5.2687872023809526 25.722656249999996  4.752604166666667 25.083007812500004  4.045758928571429 24.155273437500004  C 3.3389136904761902 23.227539062499993  2.7064732142857144 22.275390624999996  2.1484375 21.298828125  C 1.5904017857142856 20.322265625  1.0928199404761907 19.140625  0.6556919642857143 17.75390625  C 0.2185639880952381 16.367187499999996  0 15.019531249999996  0 13.7109375  C 0 9.414062499999998  1.1811755952380951 6.054687499999997  3.5435267857142856 3.6328124999999982  C 5.905877976190476 1.2109374999999996  9.170386904761903 0  13.337053571428573 0  C 14.490327380952381 0  15.666852678571427 0.20996093749999722  16.866629464285715 0.6298828125000017  C 18.06640625 1.049804687499996  19.182477678571427 1.6162109374999973  20.21484375 2.3291015625  C 21.247209821428577 3.041992187499998  22.13541666666667 3.7109374999999956  22.879464285714285 4.335937499999998  C 23.623511904761905 4.9609374999999964  24.330357142857142 5.625  25 6.328125  C 25.669642857142854 5.625  26.3764880952381 4.9609374999999964  27.120535714285715 4.335937499999998  C 27.864583333333336 3.7109374999999956  28.75279017857143 3.041992187499998  29.78515625 2.3291015625  C 30.81752232142857 1.6162109374999973  31.93359375 1.049804687499996  33.133370535714285 0.6298828125000017  C 34.33314732142857 0.20996093749999722  35.50967261904762 0  36.66294642857143 0  C 40.8296130952381 0  44.094122023809526 1.2109374999999996  46.456473214285715 3.6328124999999982  Z " fill-rule="nonzero" fill="#e3cdff" stroke="none" fill-opacity="0.9921568627450981" />
  </g>
</svg>