<?xml version="1.0" encoding="utf-8"?>
<svg version="1.1" xmlns:xlink="http://www.w3.org/1999/xlink" width="42px" height="28px" xmlns="http://www.w3.org/2000/svg">
  <g transform="matrix(1 0 0 1 -324 -1430 )">
    <path d="M 17.162760416666668 8.713541666666666  C 17.74001736111111 6.793402777777775  18.818576388888893 5.183159722222221  20.3984375 3.8828125  C 18.842881944444446 2.8498263888888875  17.135416666666668 2.3333333333333344  15.276041666666668 2.3333333333333344  C 14.024305555555555 2.3333333333333344  12.82421875 2.5794270833333344  11.67578125 3.0716145833333344  C 10.52734375 3.5638020833333344  9.539930555555557 4.223090277777775  8.713541666666668 5.049479166666666  C 7.887152777777779 5.875868055555554  7.227864583333334 6.860243055555554  6.735677083333334 8.002604166666666  C 6.243489583333334 9.144965277777775  5.997395833333334 10.342013888888888  5.997395833333334 11.59375  C 5.997395833333334 12.857638888888888  6.243489583333334 14.060763888888888  6.735677083333334 15.203125  C 7.227864583333334 16.345486111111114  7.887152777777779 17.329861111111107  8.713541666666668 18.15625  C 9.539930555555557 18.982638888888886  10.524305555555557 19.641927083333332  11.666666666666668 20.134114583333332  C 12.809027777777779 20.626302083333332  14.01215277777778 20.872395833333332  15.276041666666668 20.872395833333332  C 17.135416666666668 20.872395833333332  18.842881944444446 20.355902777777775  20.3984375 19.322916666666668  C 18.80642361111111 18.022569444444443  17.72482638888889 16.409288194444443  17.153645833333332 14.483072916666668  C 16.58246527777778 12.556857638888888  16.585503472222225 10.633680555555554  17.162760416666668 8.713541666666666  Z M 24.135416666666668 8.868489583333334  C 23.576388888888893 7.039496527777775  22.53125 5.5234375  21 4.3203125  C 19.46875 5.5234375  18.423611111111114 7.039496527777775  17.864583333333332 8.868489583333334  C 17.305555555555557 10.697482638888888  17.302517361111114 12.523437499999996  17.85546875 14.346354166666668  C 18.40842013888889 16.169270833333332  19.456597222222225 17.682291666666668  21 18.885416666666668  C 22.54340277777778 17.682291666666668  23.591579861111114 16.169270833333332  24.14453125 14.346354166666668  C 24.697482638888893 12.523437499999996  24.694444444444446 10.697482638888888  24.135416666666668 8.868489583333334  Z M 26.723958333333332 2.3333333333333344  C 24.864583333333332 2.3333333333333344  23.157118055555557 2.8498263888888875  21.6015625 3.8828125  C 23.181423611111114 5.183159722222221  24.25998263888889 6.796440972222221  24.837239583333332 8.72265625  C 25.41449652777778 10.648871527777775  25.417534722222225 12.575086805555554  24.846354166666668 14.501302083333332  C 24.27517361111111 16.427517361111114  23.19357638888889 18.034722222222218  21.6015625 19.322916666666668  C 23.157118055555557 20.355902777777775  24.864583333333332 20.872395833333332  26.723958333333332 20.872395833333332  C 27.987847222222225 20.872395833333332  29.190972222222225 20.626302083333332  30.333333333333332 20.134114583333332  C 31.47569444444445 19.641927083333332  32.46006944444445 18.982638888888886  33.286458333333336 18.15625  C 34.11284722222223 17.329861111111107  34.77213541666667 16.345486111111114  35.26432291666667 15.203125  C 35.75651041666667 14.060763888888888  36.00260416666667 12.857638888888888  36.00260416666667 11.59375  C 36.00260416666667 10.342013888888888  35.75651041666667 9.144965277777775  35.26432291666667 8.002604166666666  C 34.77213541666667 6.860243055555554  34.11284722222223 5.875868055555554  33.286458333333336 5.049479166666666  C 32.46006944444445 4.223090277777775  31.472656250000007 3.5638020833333344  30.32421875 3.0716145833333344  C 29.175781250000007 2.5794270833333344  27.97569444444445 2.3333333333333344  26.723958333333332 2.3333333333333344  Z M 35.109375 17.354166666666668  L 35.109375 17.044270833333332  L 35.236979166666664 17.044270833333332  L 35.236979166666664 16.989583333333332  L 34.927083333333336 16.989583333333332  L 34.927083333333336 17.044270833333332  L 35.0546875 17.044270833333332  L 35.0546875 17.354166666666668  L 35.109375 17.354166666666668  Z M 35.638020833333336 17.080729166666668  L 35.638020833333336 17.354166666666668  L 35.7109375 17.354166666666668  L 35.7109375 16.989583333333332  L 35.619791666666664 16.989583333333332  L 35.51041666666667 17.2265625  L 35.401041666666664 16.989583333333332  L 35.309895833333336 16.989583333333332  L 35.309895833333336 17.354166666666668  L 35.36458333333333 17.354166666666668  L 35.36458333333333 17.080729166666668  L 35.473958333333336 17.317708333333332  L 35.546875 17.317708333333332  L 35.638020833333336 17.080729166666668  Z M 35.4921875 25.356770833333336  L 35.4921875 25.375  L 35.4921875 25.411458333333336  L 35.455729166666664 25.411458333333336  L 35.401041666666664 25.411458333333336  L 35.401041666666664 25.356770833333336  L 35.455729166666664 25.356770833333336  L 35.4921875 25.356770833333336  Z M 35.419270833333336 25.447916666666664  L 35.4921875 25.5390625  L 35.546875 25.5390625  L 35.473958333333336 25.447916666666664  L 35.51041666666667 25.447916666666664  L 35.52864583333333 25.4296875  C 35.54079861111112 25.41753472222222  35.546875 25.399305555555554  35.546875 25.375  C 35.546875 25.350694444444446  35.54079861111112 25.33246527777778  35.52864583333333 25.3203125  L 35.51041666666667 25.302083333333336  L 35.455729166666664 25.302083333333336  L 35.34635416666667 25.302083333333336  L 35.34635416666667 25.5390625  L 35.401041666666664 25.5390625  L 35.401041666666664 25.447916666666664  L 35.419270833333336 25.447916666666664  Z M 12.6875 24.864583333333336  C 12.553819444444446 24.71875  12.486979166666668 24.530381944444446  12.486979166666668 24.299479166666664  C 12.486979166666668 24.068576388888886  12.553819444444446 23.880208333333336  12.6875 23.734375  C 12.821180555555557 23.588541666666664  13.003472222222223 23.515625  13.234375 23.515625  C 13.453125 23.515625  13.629340277777779 23.591579861111114  13.763020833333332 23.743489583333336  C 13.89670138888889 23.895399305555554  13.963541666666668 24.080729166666664  13.963541666666668 24.299479166666664  C 13.963541666666668 24.530381944444446  13.89670138888889 24.71875  13.763020833333332 24.864583333333336  C 13.629340277777779 25.010416666666664  13.453125 25.083333333333336  13.234375 25.083333333333336  C 13.003472222222223 25.083333333333336  12.821180555555557 25.010416666666664  12.6875 24.864583333333336  Z M 20.471354166666664 24.080729166666664  C 20.532118055555557 23.69184027777778  20.744791666666668 23.497395833333336  21.109375 23.497395833333336  C 21.473958333333332 23.497395833333336  21.686631944444446 23.69184027777778  21.747395833333332 24.080729166666664  L 20.471354166666664 24.080729166666664  Z M 27.799479166666668 24.864583333333336  C 27.665798611111114 24.71875  27.598958333333336 24.530381944444446  27.598958333333336 24.299479166666664  C 27.598958333333336 24.068576388888886  27.665798611111114 23.880208333333336  27.799479166666668 23.734375  C 27.933159722222218 23.588541666666664  28.109375 23.515625  28.328125 23.515625  C 28.546875000000004 23.515625  28.726128472222225 23.591579861111114  28.865885416666668 23.743489583333336  C 29.005642361111114 23.895399305555554  29.075520833333336 24.080729166666664  29.075520833333336 24.299479166666664  C 29.075520833333336 24.530381944444446  29.00868055555556 24.71875  28.875 24.864583333333336  C 28.741319444444446 25.010416666666664  28.55902777777778 25.083333333333336  28.328125 25.083333333333336  C 28.109375 25.083333333333336  27.933159722222218 25.010416666666664  27.799479166666668 24.864583333333336  Z M 32.766927083333336 24.85546875  C 32.62717013888889 24.70355902777778  32.55729166666667 24.518229166666664  32.55729166666667 24.299479166666664  C 32.55729166666667 24.080729166666664  32.62717013888889 23.895399305555554  32.766927083333336 23.743489583333336  C 32.906684027777786 23.591579861111114  33.0859375 23.515625  33.3046875 23.515625  C 33.52343750000001 23.515625  33.70269097222223 23.591579861111114  33.842447916666664 23.743489583333336  C 33.982204861111114 23.895399305555554  34.05208333333333 24.080729166666664  34.05208333333333 24.299479166666664  C 34.05208333333333 24.530381944444446  33.982204861111114 24.71875  33.842447916666664 24.864583333333336  C 33.70269097222223 25.010416666666664  33.52343750000001 25.083333333333336  33.3046875 25.083333333333336  C 33.0859375 25.083333333333336  32.906684027777786 25.00737847222222  32.766927083333336 24.85546875  Z M 35.51041666666667 25.59375  C 35.49826388888889 25.60590277777778  35.473958333333336 25.611979166666664  35.4375 25.611979166666664  C 35.41319444444444 25.611979166666664  35.38888888888889 25.60590277777778  35.36458333333333 25.59375  C 35.35243055555556 25.59375  35.33420138888889 25.58159722222222  35.309895833333336 25.557291666666664  C 35.285590277777786 25.532986111111114  35.27343750000001 25.514756944444446  35.2734375 25.502604166666664  C 35.26128472222223 25.478298611111114  35.255208333333336 25.453993055555554  35.255208333333336 25.4296875  C 35.255208333333336 25.393229166666664  35.26128472222223 25.368923611111114  35.2734375 25.356770833333336  C 35.27343750000001 25.33246527777778  35.285590277777786 25.30815972222222  35.309895833333336 25.283854166666664  L 35.328125 25.265625  C 35.35243055555556 25.265625  35.36458333333333 25.259548611111114  35.36458333333333 25.247395833333336  C 35.38888888888889 25.235243055555554  35.41319444444444 25.229166666666664  35.4375 25.229166666666664  C 35.473958333333336 25.229166666666664  35.49826388888889 25.235243055555554  35.51041666666667 25.247395833333336  L 35.583333333333336 25.283854166666664  L 35.619791666666664 25.356770833333336  L 35.619791666666664 25.375  C 35.63194444444444 25.399305555555554  35.638020833333336 25.41753472222222  35.638020833333336 25.4296875  L 35.619791666666664 25.447916666666664  L 35.619791666666664 25.502604166666664  C 35.619791666666664 25.502604166666664  35.61371527777778 25.508680555555554  35.6015625 25.520833333333336  L 35.583333333333336 25.557291666666664  C 35.55902777777778 25.58159722222222  35.53472222222223 25.59375  35.51041666666667 25.59375  Z M 10.919270833333334 24.171875  L 10.919270833333334 25.5390625  L 11.466145833333332 25.5390625  L 11.466145833333332 23.989583333333336  C 11.466145833333332 23.697916666666664  11.378038194444446 23.463975694444446  11.201822916666666 23.287760416666664  C 11.02560763888889 23.111545138888886  10.785590277777779 23.017361111111114  10.481770833333332 23.005208333333336  C 10.092881944444446 23.005208333333336  9.807291666666666 23.151041666666664  9.625 23.442708333333336  C 9.454861111111112 23.151041666666664  9.18142361111111 23.005208333333336  8.8046875 23.005208333333336  C 8.513020833333334 23.005208333333336  8.276041666666668 23.126736111111114  8.09375 23.369791666666664  L 8.09375 23.078125  L 7.546875 23.078125  L 7.546875 25.5390625  L 8.09375 25.5390625  L 8.09375 24.171875  C 8.093750000000002 23.734375  8.294270833333334 23.515625  8.6953125 23.515625  C 9.059895833333334 23.515625  9.242187500000002 23.734375  9.2421875 24.171875  L 9.2421875 25.5390625  L 9.770833333333334 25.5390625  L 9.770833333333334 24.171875  C 9.770833333333334 23.734375  9.971354166666666 23.515625  10.372395833333334 23.515625  C 10.736979166666666 23.515625  10.919270833333334 23.734375  10.919270833333334 24.171875  Z M 13.9453125 25.229166666666664  L 13.9453125 25.5390625  L 14.473958333333334 25.5390625  L 14.473958333333334 24.299479166666664  L 14.473958333333334 23.078125  L 13.9453125 23.078125  L 13.9453125 23.369791666666664  C 13.738715277777779 23.126736111111114  13.477430555555557 23.005208333333336  13.161458333333334 23.005208333333336  C 12.809027777777779 23.005208333333336  12.517361111111112 23.126736111111114  12.286458333333332 23.369791666666664  C 12.055555555555555 23.61284722222222  11.940104166666666 23.922743055555554  11.940104166666666 24.299479166666664  C 11.940104166666666 24.67621527777778  12.055555555555555 24.986111111111114  12.286458333333332 25.229166666666664  C 12.517361111111112 25.47222222222222  12.809027777777779 25.59375  13.161458333333334 25.59375  C 13.501736111111112 25.59375  13.763020833333332 25.47222222222222  13.9453125 25.229166666666664  Z M 16.889322916666668 25.375  C 17.08984375 25.229166666666664  17.190104166666664 25.03472222222222  17.190104166666664 24.791666666666664  C 17.190104166666664 24.37847222222222  16.90451388888889 24.135416666666664  16.333333333333332 24.0625  L 16.078125 24.026041666666664  C 15.798611111111112 23.977430555555554  15.658854166666666 23.892361111111114  15.658854166666666 23.770833333333336  C 15.658854166666666 23.588541666666664  15.810763888888891 23.497395833333336  16.114583333333336 23.497395833333336  C 16.39409722222222 23.497395833333336  16.655381944444446 23.564236111111114  16.8984375 23.697916666666664  L 17.1171875 23.260416666666664  C 16.84982638888889 23.09027777777778  16.515625 23.005208333333336  16.114583333333336 23.005208333333336  C 15.798611111111112 23.005208333333336  15.549479166666668 23.078125  15.3671875 23.223958333333336  C 15.184895833333336 23.369791666666664  15.093750000000002 23.564236111111114  15.09375 23.807291666666664  C 15.093750000000002 24.208333333333336  15.379340277777779 24.4453125  15.950520833333334 24.518229166666664  L 16.1875 24.5546875  C 16.479166666666668 24.603298611111114  16.625 24.688368055555554  16.625 24.809895833333336  C 16.625 25.016493055555554  16.436631944444446 25.119791666666664  16.059895833333332 25.119791666666664  C 15.75607638888889 25.119791666666664  15.482638888888891 25.03472222222222  15.239583333333332 24.864583333333336  L 15.002604166666666 25.283854166666664  C 15.306423611111112 25.490451388888886  15.658854166666666 25.59375  16.059895833333332 25.59375  C 16.41232638888889 25.59375  16.688802083333336 25.520833333333336  16.889322916666668 25.375  Z M 18.903645833333336 25.59375  C 19.158854166666664 25.59375  19.377604166666668 25.532986111111114  19.559895833333336 25.411458333333336  L 19.4140625 24.955729166666664  C 19.25607638888889 25.040798611111114  19.09809027777778 25.083333333333336  18.940104166666668 25.083333333333336  C 18.709201388888893 25.083333333333336  18.59375 24.94965277777778  18.59375 24.682291666666664  L 18.59375 23.5703125  L 19.46875 23.5703125  L 19.46875 23.078125  L 18.59375 23.078125  L 18.59375 22.330729166666664  L 18.046875 22.330729166666664  L 18.046875 23.078125  L 17.536458333333332 23.078125  L 17.536458333333332 23.5703125  L 18.046875 23.5703125  L 18.046875 24.682291666666664  C 18.046875000000004 25.289930555555554  18.33246527777778 25.59375  18.903645833333336 25.59375  Z M 21.966145833333332 23.360677083333336  C 21.747395833333332 23.123697916666664  21.467881944444443 23.005208333333336  21.127604166666664 23.005208333333336  C 20.77517361111111 23.005208333333336  20.483506944444446 23.126736111111114  20.252604166666668 23.369791666666664  C 20.021701388888893 23.61284722222222  19.90625 23.922743055555554  19.90625 24.299479166666664  C 19.90625 24.688368055555554  20.024739583333332 25.001302083333336  20.26171875 25.23828125  C 20.498697916666668 25.475260416666664  20.799479166666664 25.59375  21.1640625 25.59375  C 21.565104166666668 25.59375  21.899305555555557 25.478298611111114  22.166666666666668 25.247395833333336  L 21.911458333333332 24.846354166666664  C 21.692708333333336 25.028645833333336  21.455729166666664 25.119791666666664  21.200520833333336 25.119791666666664  C 20.787326388888893 25.119791666666664  20.538194444444446 24.919270833333336  20.453125 24.518229166666664  L 22.294270833333332 24.518229166666664  L 22.294270833333332 24.299479166666664  C 22.294270833333332 23.91059027777778  22.184895833333336 23.59765625  21.966145833333332 23.360677083333336  Z M 24.408854166666664 23.078125  C 24.299479166666668 23.029513888888886  24.171875 23.005208333333336  24.026041666666668 23.005208333333336  C 23.746527777777782 23.005208333333336  23.533854166666668 23.126736111111114  23.388020833333332 23.369791666666664  L 23.388020833333332 23.078125  L 22.841145833333336 23.078125  L 22.841145833333336 25.5390625  L 23.388020833333332 25.5390625  L 23.388020833333332 24.153645833333336  C 23.388020833333332 23.728298611111114  23.564236111111114 23.515625  23.916666666666664 23.515625  C 24.038194444444446 23.515625  24.147569444444446 23.539930555555554  24.244791666666664 23.588541666666664  L 24.408854166666664 23.078125  Z M 24.928385416666668 23.369791666666664  C 24.69140625 23.61284722222222  24.572916666666664 23.922743055555554  24.572916666666664 24.299479166666664  C 24.572916666666664 24.67621527777778  24.69140625 24.986111111111114  24.928385416666668 25.229166666666664  C 25.165364583333332 25.47222222222222  25.484375 25.59375  25.885416666666664 25.59375  C 26.237847222222225 25.59375  26.529513888888893 25.49652777777778  26.760416666666668 25.302083333333336  L 26.505208333333332 24.864583333333336  C 26.286458333333336 25.022569444444446  26.073784722222225 25.095486111111114  25.8671875 25.083333333333336  C 25.6484375 25.083333333333336  25.469184027777782 25.010416666666664  25.329427083333332 24.864583333333336  C 25.189670138888893 24.71875  25.119791666666668 24.530381944444446  25.119791666666668 24.299479166666664  C 25.119791666666668 24.068576388888886  25.189670138888893 23.880208333333336  25.329427083333332 23.734375  C 25.469184027777782 23.588541666666664  25.6484375 23.515625  25.8671875 23.515625  C 26.09809027777778 23.515625  26.31076388888889 23.588541666666664  26.505208333333332 23.734375  L 26.760416666666668 23.296875  C 26.517361111111114 23.102430555555554  26.225694444444443 23.005208333333336  25.885416666666664 23.005208333333336  C 25.484375 23.005208333333336  25.165364583333332 23.126736111111114  24.928385416666668 23.369791666666664  Z M 29.0390625 25.229166666666664  L 29.0390625 25.5390625  L 29.5859375 25.5390625  L 29.5859375 24.299479166666664  L 29.5859375 23.078125  L 29.0390625 23.078125  L 29.0390625 23.369791666666664  C 28.856770833333336 23.126736111111114  28.601562500000007 23.005208333333336  28.2734375 23.005208333333336  C 27.921006944444446 23.005208333333336  27.626302083333332 23.126736111111114  27.389322916666668 23.369791666666664  C 27.15234375 23.61284722222222  27.033854166666664 23.922743055555554  27.033854166666664 24.299479166666664  C 27.033854166666664 24.67621527777778  27.15234375 24.986111111111114  27.389322916666668 25.229166666666664  C 27.626302083333332 25.47222222222222  27.921006944444446 25.59375  28.2734375 25.59375  C 28.61371527777778 25.59375  28.86892361111111 25.47222222222222  29.0390625 25.229166666666664  Z M 31.846354166666668 23.078125  C 31.749131944444446 23.029513888888886  31.621527777777782 23.005208333333336  31.463541666666664 23.005208333333336  C 31.18402777777778 23.005208333333336  30.971354166666664 23.126736111111114  30.825520833333332 23.369791666666664  L 30.825520833333332 23.078125  L 30.296875 23.078125  L 30.296875 25.5390625  L 30.825520833333332 25.5390625  L 30.825520833333332 24.153645833333336  C 30.825520833333332 23.728298611111114  31.00173611111111 23.515625  31.354166666666668 23.515625  C 31.475694444444443 23.515625  31.585069444444446 23.539930555555554  31.682291666666668 23.588541666666664  L 31.846354166666668 23.078125  Z M 34.015625 25.229166666666664  L 34.015625 25.5390625  L 34.54427083333333 25.5390625  L 34.54427083333333 24.299479166666664  L 34.54427083333333 22.075520833333336  L 34.015625 22.075520833333336  L 34.015625 23.369791666666664  C 33.833333333333336 23.126736111111114  33.57204861111112 23.005208333333336  33.23177083333333 23.005208333333336  C 32.89149305555556 23.005208333333336  32.602864583333336 23.129774305555554  32.365885416666664 23.37890625  C 32.12890625 23.628038194444446  32.010416666666664 23.934895833333336  32.010416666666664 24.299479166666664  C 32.010416666666664 24.6640625  32.12890625 24.970920138888886  32.365885416666664 25.220052083333336  C 32.602864583333336 25.46918402777778  32.89149305555556 25.59375  33.23177083333333 25.59375  C 33.58420138888889 25.59375  33.845486111111114 25.47222222222222  34.015625 25.229166666666664  Z M 35.4921875 25.18359375  C 35.46788194444444 25.177517361111114  35.44965277777778 25.174479166666664  35.4375 25.174479166666664  L 35.401041666666664 25.192708333333336  L 35.34635416666667 25.192708333333336  C 35.322048611111114 25.204861111111114  35.29774305555556 25.22309027777778  35.2734375 25.247395833333336  C 35.23697916666667 25.259548611111114  35.21875 25.283854166666664  35.21875 25.3203125  C 35.20659722222223 25.344618055555554  35.20052083333333 25.381076388888886  35.20052083333333 25.4296875  C 35.20052083333333 25.466145833333336  35.20659722222223 25.49652777777778  35.21875 25.520833333333336  C 35.21875 25.545138888888886  35.23697916666667 25.569444444444446  35.2734375 25.59375  C 35.29774305555556 25.618055555555554  35.322048611111114 25.63628472222222  35.34635416666667 25.6484375  C 35.37065972222223 25.66059027777778  35.40104166666667 25.666666666666664  35.4375 25.666666666666664  C 35.486111111111114 25.666666666666664  35.52256944444445 25.66059027777778  35.546875 25.6484375  C 35.546875 25.63628472222222  35.55902777777778 25.624131944444446  35.583333333333336 25.611979166666664  L 35.619791666666664 25.59375  C 35.63194444444444 25.58159722222222  35.650173611111114 25.557291666666664  35.67447916666667 25.520833333333336  C 35.68663194444445 25.49652777777778  35.69270833333333 25.466145833333336  35.69270833333333 25.4296875  C 35.69270833333333 25.381076388888886  35.68663194444445 25.344618055555554  35.67447916666667 25.3203125  C 35.66232638888889 25.30815972222222  35.64409722222222 25.283854166666664  35.619791666666664 25.247395833333336  C 35.619791666666664 25.235243055555554  35.60763888888889 25.22309027777778  35.583333333333336 25.2109375  L 35.546875 25.192708333333336  C 35.53472222222223 25.192708333333336  35.51649305555556 25.189670138888886  35.4921875 25.18359375  Z M 41.307291666666664 0.6927083333333344  C 41.76909722222223 1.1545138888888875  42 1.7013888888888875  42 2.3333333333333344  L 42 25.666666666666664  C 42 26.298611111111114  41.76909722222223 26.845486111111114  41.307291666666664 27.307291666666664  C 40.845486111111114 27.76909722222222  40.29861111111112 28  39.666666666666664 28  L 2.333333333333333 28  C 1.701388888888889 28  1.1545138888888888 27.76909722222222  0.6927083333333334 27.307291666666664  C 0.2309027777777778 26.845486111111114  0 26.298611111111114  0 25.666666666666664  L 0 2.3333333333333344  C 0 1.7013888888888875  0.2309027777777778 1.1545138888888875  0.6927083333333334 0.6927083333333344  C 1.1545138888888888 0.23090277777777501  1.701388888888889 0  2.333333333333333 0  L 39.666666666666664 0  C 40.29861111111112 0  40.845486111111114 0.23090277777777501  41.307291666666664 0.6927083333333344  Z " fill-rule="nonzero" fill="#ffffff" stroke="none" transform="matrix(1 0 0 1 324 1430 )" />
  </g>
</svg>