<?xml version="1.0" encoding="utf-8"?>
<svg version="1.1" xmlns:xlink="http://www.w3.org/1999/xlink" width="18px" height="18px" xmlns="http://www.w3.org/2000/svg">
  <g transform="matrix(1 0 0 1 -11 -1767 )">
    <path d="M 13.41796875 10.951171875  C 13.457031250000002 10.986328125  13.4765625 11.031249999999998  13.4765625 11.085937500000002  L 13.4765625 12.363281249999998  C 13.4765625 12.753906249999998  13.333984375000002 13.101562499999998  13.048828125 13.406250000000002  C 12.763671875000002 13.7109375  12.396484375000002 13.947265624999998  11.947265625 14.115234375  C 11.498046875000002 14.283203125  11.037109375 14.41015625  10.564453125 14.49609375  C 10.091796875000002 14.58203125  9.6328125 14.625  9.1875 14.625  C 7.585937500000001 14.625  6.248046875000001 14.082031250000002  5.173828125 12.996093749999998  C 4.099609375000001 11.910156249999998  3.5625 10.558593750000002  3.5625 8.94140625  C 3.5625 7.35546875  4.09375 6.03125  5.15625 4.968749999999999  C 6.218750000000001 3.906249999999999  7.542968750000001 3.375  9.12890625 3.375  C 9.39453125 3.375  9.689453125000002 3.392578125  10.013671875 3.427734375  C 10.337890625000002 3.462890625  10.701171875 3.533203125  11.103515625 3.638671875  C 11.505859375000002 3.744140625  11.867187500000002 3.876953125  12.1875 4.037109374999999  C 12.507812500000002 4.197265624999999  12.777343750000002 4.417968750000001  12.99609375 4.699218750000001  C 13.21484375 4.980468750000001  13.32421875 5.296875000000001  13.32421875 5.648437500000001  L 13.32421875 6.92578125  C 13.32421875 7.050781249999997  13.26171875 7.113281249999999  13.13671875 7.113281249999999  L 11.75390625 7.113281249999999  C 11.628906250000002 7.113281249999999  11.566406250000002 7.050781249999997  11.56640625 6.92578125  L 11.56640625 6.105468750000001  C 11.566406250000002 5.769531249999999  11.310546875 5.505859374999999  10.798828125 5.314453125000001  C 10.287109375000002 5.123046874999998  9.75 5.02734375  9.1875 5.02734375  C 8.093750000000002 5.02734375  7.201171875 5.384765625000001  6.509765625 6.099609375  C 5.818359375 6.814453124999999  5.47265625 7.7421875  5.47265625 8.8828125  C 5.47265625 10.062499999999998  5.830078125 11.037109375  6.544921875 11.806640625000002  C 7.259765625 12.576171874999998  8.171875 12.960937499999998  9.28125 12.960937499999998  C 9.812500000000002 12.960937499999998  10.3515625 12.8671875  10.8984375 12.679687499999998  C 11.445312500000002 12.492187500000002  11.71875 12.234375  11.71875 11.906249999999998  L 11.71875 11.085937500000002  C 11.71875 11.031249999999998  11.736328125 10.986328125  11.771484375 10.951171875  C 11.806640625 10.916015625  11.84765625 10.8984375  11.89453125 10.8984375  L 13.2890625 10.8984375  C 13.3359375 10.8984375  13.378906250000002 10.916015625  13.41796875 10.951171875  Z M 11.912109375 2.097656250000001  C 10.986328125 1.6992187499999993  10.015625 1.5000000000000007  9 1.5000000000000007  C 7.984375 1.5000000000000007  7.013671875 1.6992187499999993  6.087890625 2.097656250000001  C 5.162109375 2.49609375  4.365234375 3.029296875000001  3.697265625 3.697265625000001  C 3.029296875 4.365234375000001  2.49609375 5.162109374999999  2.09765625 6.087890625000001  C 1.69921875 7.013671875  1.5 7.984374999999999  1.5 9  C 1.5 10.015625  1.69921875 10.986328125  2.09765625 11.912109375000002  C 2.49609375 12.837890624999998  3.029296875 13.634765625  3.697265625 14.302734375  C 4.365234375 14.970703125  5.162109375 15.50390625  6.087890625 15.90234375  C 7.013671875 16.30078125  7.984375 16.5  9 16.5  C 10.015625 16.5  10.986328125 16.30078125  11.912109375 15.90234375  C 12.837890625 15.50390625  13.634765625 14.970703125  14.302734375 14.302734375  C 14.970703125 13.634765625  15.50390625 12.837890624999998  15.90234375 11.912109375000002  C 16.30078125 10.986328125  16.5 10.015625  16.5 9  C 16.5 7.984374999999999  16.30078125 7.013671875  15.90234375 6.087890625000001  C 15.50390625 5.162109374999999  14.970703125 4.365234375000001  14.302734375 3.697265625000001  C 13.634765625 3.029296875000001  12.837890625 2.49609375  11.912109375 2.097656250000001  Z M 16.79296875 4.482421875  C 17.597656249999996 5.861328124999998  18 7.367187499999997  18 9  C 18 10.6328125  17.597656249999996 12.138671874999998  16.79296875 13.517578125  C 15.988281250000002 14.896484375  14.896484375 15.98828125  13.517578125 16.79296875  C 12.138671875000002 17.59765625  10.6328125 18  9 18  C 7.367187500000001 18  5.861328125 17.59765625  4.482421875 16.79296875  C 3.1035156250000004 15.98828125  2.01171875 14.896484375  1.20703125 13.517578125  C 0.40234374999999994 12.138671874999998  0 10.6328125  0 9  C 0 7.367187499999997  0.40234374999999994 5.861328124999998  1.20703125 4.482421875  C 2.01171875 3.103515625  3.1035156250000004 2.0117187499999982  4.482421875 1.2070312499999993  C 5.861328125 0.40234374999999845  7.367187500000001 0  9 0  C 10.6328125 0  12.138671875000002 0.40234374999999845  13.517578125 1.2070312499999993  C 14.896484375 2.0117187499999982  15.988281250000002 3.103515625  16.79296875 4.482421875  Z " fill-rule="nonzero" fill="#ffffff" stroke="none" fill-opacity="0.9921568627450981" transform="matrix(1 0 0 1 11 1767 )" />
  </g>
</svg>