<?xml version="1.0" encoding="utf-8"?>
<svg version="1.1" xmlns:xlink="http://www.w3.org/1999/xlink" width="42px" height="28px" xmlns="http://www.w3.org/2000/svg">
  <g transform="matrix(1 0 0 1 -370 -1430 )">
    <path d="M 13.243489583333334 13.352864583333334  C 13.468315972222223 13.553385416666666  13.580729166666666 13.829861111111109  13.580729166666666 14.182291666666668  C 13.580729166666666 14.631944444444443  13.42578125 15.005642361111112  13.115885416666666 15.303385416666668  C 12.805989583333334 15.601128472222218  12.426215277777779 15.75  11.9765625 15.75  C 11.624131944444446 15.75  11.341579861111112 15.652777777777775  11.12890625 15.458333333333332  C 10.91623263888889 15.263888888888888  10.809895833333332 14.996527777777775  10.809895833333332 14.65625  C 10.809895833333332 14.206597222222218  10.961805555555557 13.826822916666666  11.265625 13.516927083333334  C 11.569444444444446 13.20703125  11.946180555555557 13.052083333333334  12.395833333333334 13.052083333333334  C 12.736111111111112 13.052083333333334  13.018663194444446 13.15234375  13.243489583333334 13.352864583333334  Z M 27.671875 10.91015625  C 27.817708333333332 11.037760416666666  27.890625 11.223090277777779  27.890625 11.466145833333334  C 27.890625 11.9765625  27.756944444444446 12.322916666666666  27.489583333333332 12.505208333333334  C 27.222222222222225 12.6875  26.821180555555557 12.778645833333334  26.286458333333336 12.778645833333334  L 25.703125 12.796875  L 26.013020833333332 10.846354166666666  C 26.037326388888893 10.712673611111109  26.116319444444446 10.645833333333334  26.25 10.645833333333334  L 26.578125 10.645833333333334  C 26.845486111111114 10.645833333333334  27.058159722222225 10.657986111111109  27.216145833333332 10.682291666666666  C 27.374131944444443 10.706597222222221  27.526041666666664 10.782552083333334  27.671875 10.91015625  Z M 33.95182291666667 13.352864583333334  C 34.17664930555556 13.553385416666666  34.28906250000001 13.829861111111109  34.2890625 14.182291666666668  C 34.28906250000001 14.619791666666668  34.134114583333336 14.990451388888888  33.82421875 15.294270833333332  C 33.51432291666667 15.598090277777775  33.14062500000001 15.75  32.703125 15.75  C 32.35069444444444 15.75  32.06510416666667 15.652777777777775  31.846354166666668 15.458333333333332  C 31.627604166666664 15.263888888888888  31.518229166666668 14.996527777777775  31.518229166666668 14.65625  C 31.518229166666668 14.206597222222218  31.670138888888893 13.826822916666666  31.973958333333332 13.516927083333334  C 32.27777777777778 13.20703125  32.65451388888889 13.052083333333334  33.104166666666664 13.052083333333334  C 33.44444444444444 13.052083333333334  33.72699652777778 13.15234375  33.95182291666667 13.352864583333334  Z M 8.458333333333334 13.516927083333334  C 9.053819444444445 12.927517361111109  9.3515625 12.110243055555554  9.3515625 11.065104166666666  C 9.3515625 10.348090277777779  9.117621527777779 9.828559027777779  8.649739583333334 9.506510416666666  C 8.18185763888889 9.184461805555554  7.571180555555556 9.0234375  6.817708333333334 9.0234375  L 3.901041666666667 9.0234375  C 3.6701388888888893 9.0234375  3.5425347222222228 9.138888888888888  3.5182291666666665 9.369791666666666  L 2.333333333333333 16.807291666666668  C 2.321180555555556 16.880208333333332  2.3394097222222223 16.947048611111114  2.3880208333333335 17.0078125  C 2.436631944444445 17.068576388888886  2.497395833333333 17.098958333333332  2.5703125 17.098958333333332  L 3.9557291666666665 17.098958333333332  C 4.198784722222222 17.098958333333332  4.332465277777778 16.983506944444443  4.356770833333334 16.752604166666668  L 4.684895833333334 14.747395833333332  C 4.697048611111112 14.650173611111112  4.739583333333333 14.571180555555557  4.8125 14.510416666666668  C 4.885416666666667 14.449652777777775  4.9765625 14.41015625  5.0859375 14.391927083333332  C 5.1953125 14.373697916666668  5.298611111111112 14.364583333333332  5.395833333333333 14.364583333333332  C 5.493055555555556 14.364583333333332  5.6085069444444455 14.370659722222218  5.7421875 14.3828125  C 5.875868055555556 14.394965277777775  5.9609375 14.401041666666668  5.997395833333334 14.401041666666668  C 7.042534722222223 14.401041666666668  7.862847222222223 14.106336805555557  8.458333333333334 13.516927083333334  Z M 14.583333333333332 17.098958333333332  C 14.814236111111112 17.098958333333332  14.94791666666667 16.983506944444443  14.984375 16.752604166666668  L 15.731770833333332 11.994791666666666  C 15.743923611111112 11.921875  15.725694444444446 11.855034722222221  15.677083333333334 11.794270833333334  C 15.628472222222223 11.733506944444443  15.567708333333332 11.703125  15.494791666666666 11.703125  L 14.109375 11.703125  C 13.939236111111112 11.703125  13.8359375 11.903645833333334  13.799479166666668 12.3046875  C 13.471354166666668 11.818576388888888  12.894097222222223 11.575520833333334  12.067708333333334 11.575520833333334  C 11.192708333333334 11.575520833333334  10.448350694444445 11.903645833333334  9.834635416666666 12.559895833333334  C 9.22092013888889 13.216145833333334  8.914062500000002 13.987847222222221  8.9140625 14.875  C 8.914062500000002 15.592013888888888  9.123697916666668 16.163194444444443  9.54296875 16.588541666666668  C 9.962239583333334 17.013888888888886  10.524305555555557 17.2265625  11.229166666666666 17.2265625  C 11.569444444444446 17.2265625  11.921875 17.153645833333332  12.286458333333332 17.0078125  C 12.651041666666668 16.861979166666668  12.942708333333332 16.667534722222218  13.161458333333334 16.424479166666668  C 13.112847222222221 16.5703125  13.088541666666666 16.697916666666668  13.088541666666666 16.807291666666668  C 13.088541666666666 17.001736111111107  13.167534722222223 17.098958333333332  13.325520833333334 17.098958333333332  L 14.583333333333332 17.098958333333332  Z M 23.096354166666664 12.0859375  C 23.120659722222225 12.061631944444443  23.1328125 12.019097222222221  23.1328125 11.958333333333334  C 23.1328125 11.897569444444443  23.108506944444443 11.83984375  23.059895833333332 11.78515625  C 23.011284722222225 11.73046875  22.956597222222225 11.703125  22.895833333333332 11.703125  L 21.4921875 11.703125  C 21.358506944444446 11.703125  21.249131944444446 11.763888888888888  21.1640625 11.885416666666666  L 19.231770833333336 14.729166666666668  L 18.4296875 11.994791666666666  C 18.368923611111114 11.800347222222221  18.235243055555557 11.703125  18.028645833333332 11.703125  L 16.661458333333332 11.703125  C 16.600694444444446 11.703125  16.546006944444446 11.73046875  16.497395833333332 11.78515625  C 16.448784722222225 11.83984375  16.424479166666668 11.897569444444443  16.424479166666668 11.958333333333334  C 16.424479166666668 11.982638888888888  16.54296875 12.341145833333334  16.779947916666664 13.033854166666666  C 17.016927083333336 13.7265625  17.272135416666664 14.473958333333332  17.545572916666668 15.276041666666668  C 17.819010416666668 16.078125  17.961805555555557 16.503472222222218  17.973958333333332 16.552083333333332  C 16.977430555555557 17.913194444444443  16.479166666666668 18.642361111111107  16.479166666666668 18.739583333333332  C 16.479166666666668 18.897569444444443  16.55815972222222 18.9765625  16.716145833333332 18.9765625  L 18.119791666666668 18.9765625  C 18.253472222222225 18.9765625  18.362847222222225 18.915798611111107  18.447916666666668 18.794270833333332  L 23.096354166666664 12.0859375  Z M 29.166666666666664 13.516927083333334  C 29.76215277777778 12.927517361111109  30.059895833333336 12.110243055555554  30.059895833333336 11.065104166666666  C 30.059895833333336 10.348090277777779  29.825954861111114 9.828559027777779  29.358072916666668 9.506510416666666  C 28.890190972222225 9.184461805555554  28.27951388888889 9.0234375  27.526041666666664 9.0234375  L 24.627604166666668 9.0234375  C 24.384548611111114 9.0234375  24.25086805555556 9.138888888888888  24.2265625 9.369791666666666  L 23.041666666666668 16.807291666666668  C 23.02951388888889 16.880208333333332  23.047743055555557 16.947048611111114  23.096354166666664 17.0078125  C 23.14496527777778 17.068576388888886  23.205729166666668 17.098958333333332  23.278645833333332 17.098958333333332  L 24.7734375 17.098958333333332  C 24.919270833333332 17.098958333333332  25.016493055555557 17.019965277777775  25.065104166666664 16.861979166666668  L 25.393229166666664 14.747395833333332  C 25.405381944444443 14.650173611111112  25.447916666666668 14.571180555555557  25.520833333333332 14.510416666666668  C 25.59375 14.449652777777775  25.684895833333332 14.41015625  25.794270833333336 14.391927083333332  C 25.903645833333332 14.373697916666668  26.006944444444446 14.364583333333332  26.104166666666668 14.364583333333332  C 26.201388888888893 14.364583333333332  26.31684027777778 14.370659722222218  26.450520833333336 14.3828125  C 26.584201388888893 14.394965277777775  26.669270833333332 14.401041666666668  26.705729166666664 14.401041666666668  C 27.750868055555557 14.401041666666668  28.571180555555557 14.106336805555557  29.166666666666664 13.516927083333334  Z M 35.291666666666664 17.098958333333332  C 35.52256944444445 17.098958333333332  35.65625 16.983506944444443  35.69270833333333 16.752604166666668  L 36.440104166666664 11.994791666666666  C 36.45225694444444 11.921875  36.43402777777778 11.855034722222221  36.385416666666664 11.794270833333334  C 36.33680555555556 11.733506944444443  36.27604166666667 11.703125  36.203125 11.703125  L 34.817708333333336 11.703125  C 34.64756944444445 11.703125  34.544270833333336 11.903645833333334  34.5078125 12.3046875  C 34.19184027777778 11.818576388888888  33.614583333333336 11.575520833333334  32.776041666666664 11.575520833333334  C 31.901041666666668 11.575520833333334  31.15668402777778 11.903645833333334  30.54296875 12.559895833333334  C 29.929253472222225 13.216145833333334  29.622395833333332 13.987847222222221  29.622395833333332 14.875  C 29.622395833333332 15.592013888888888  29.83203125 16.163194444444443  30.251302083333332 16.588541666666668  C 30.670572916666668 17.013888888888886  31.23263888888889 17.2265625  31.9375 17.2265625  C 32.28993055555556 17.2265625  32.6484375 17.153645833333332  33.013020833333336 17.0078125  C 33.37760416666667 16.861979166666668  33.66319444444444 16.667534722222218  33.86979166666667 16.424479166666668  C 33.86979166666667 16.436631944444443  33.85763888888889 16.491319444444443  33.833333333333336 16.588541666666668  C 33.809027777777786 16.685763888888886  33.79687500000001 16.758680555555557  33.796875 16.807291666666668  C 33.79687500000001 17.001736111111107  33.87586805555556 17.098958333333332  34.03385416666667 17.098958333333332  L 35.291666666666664 17.098958333333332  Z M 38.48177083333333 16.752604166666668  L 39.666666666666664 9.296875  L 39.666666666666664 9.278645833333334  C 39.666666666666664 9.108506944444441  39.587673611111114 9.0234375  39.4296875 9.0234375  L 38.080729166666664 9.0234375  C 37.947048611111114 9.0234375  37.86805555555556 9.090277777777775  37.84375 9.223958333333334  L 36.65885416666667 16.807291666666668  L 36.640625 16.84375  C 36.64062500000001 16.904513888888886  36.66493055555556 16.962239583333332  36.713541666666664 17.016927083333332  C 36.76215277777778 17.071614583333332  36.82291666666667 17.098958333333332  36.895833333333336 17.098958333333332  L 38.098958333333336 17.098958333333332  C 38.32986111111112 17.098958333333332  38.457465277777786 16.983506944444443  38.48177083333333 16.752604166666668  Z M 6.927083333333333 10.85546875  C 7.145833333333334 10.995225694444441  7.21875 11.289930555555554  7.145833333333334 11.739583333333334  C 7.0850694444444455 12.164930555555554  6.927083333333334 12.444444444444443  6.671875 12.578125  C 6.416666666666667 12.711805555555554  6.052083333333333 12.778645833333334  5.578125 12.778645833333334  L 4.9765625 12.796875  L 5.286458333333333 10.846354166666666  C 5.310763888888889 10.712673611111109  5.389756944444445 10.645833333333334  5.5234375 10.645833333333334  L 5.869791666666667 10.645833333333334  C 6.355902777777778 10.645833333333334  6.708333333333333 10.715711805555554  6.927083333333333 10.85546875  Z M 41.307291666666664 0.6927083333333344  C 41.76909722222223 1.1545138888888875  42 1.7013888888888875  42 2.3333333333333344  L 42 25.666666666666664  C 42 26.298611111111114  41.76909722222223 26.845486111111114  41.307291666666664 27.307291666666664  C 40.845486111111114 27.76909722222222  40.29861111111112 28  39.666666666666664 28  L 2.333333333333333 28  C 1.701388888888889 28  1.1545138888888888 27.76909722222222  0.6927083333333334 27.307291666666664  C 0.2309027777777778 26.845486111111114  0 26.298611111111114  0 25.666666666666664  L 0 2.3333333333333344  C 0 1.7013888888888875  0.2309027777777778 1.1545138888888875  0.6927083333333334 0.6927083333333344  C 1.1545138888888888 0.23090277777777501  1.701388888888889 0  2.333333333333333 0  L 39.666666666666664 0  C 40.29861111111112 0  40.845486111111114 0.23090277777777501  41.307291666666664 0.6927083333333344  Z " fill-rule="nonzero" fill="#ffffff" stroke="none" transform="matrix(1 0 0 1 370 1430 )" />
  </g>
</svg>