<?xml version="1.0" encoding="utf-8"?>
<svg version="1.1" xmlns:xlink="http://www.w3.org/1999/xlink" width="26px" height="25px" xmlns="http://www.w3.org/2000/svg">
  <g transform="matrix(1 0 0 1 -225 -2294 )">
    <path d="M 25.38254172015404 10.33378287255563  C 25.794180573384686 10.772083614295347  26.000000000000007 11.28343447965835  26 11.867835468644639  C 26.000000000000007 12.463474938188357  25.794180573384686 12.969206563272644  25.38254172015404 13.385030343897505  L 14.518613607188703 24.37626432906271  C 14.084724005134788 24.792088109687572  13.57851946940522 25  13 25  C 12.410355156183142 25  11.909713307659393 24.792088109687572  11.498074454428755 24.37626432906271  L 0.6341463414634146 13.385030343897505  C 0.21138211382113828 12.980445043830075  0 12.474713418745786  0 11.867835468644639  C 0 11.27219599910092  0.21138211382113828 10.760845133737917  0.6341463414634146 10.33378287255563  L 1.8690629011553275 9.06945380984491  C 2.302952503209243 8.653630029220047  2.809157038938811 8.44571813890762  3.387676508344031 8.44571813890762  C 3.9773213521608906 8.44571813890762  4.477963200684639 8.653630029220047  4.889602053915276 9.06945380984491  L 10 14.025623735670939  L 10 2.1577882670262976  C 9.79589216944801 1.5733872780400087  10.00727428326915 1.067655652955718  10.430038510911425 0.6405933917734336  C 10.852802738553702 0.21353113059114082  11.353444587077451 0  11.93196405648267 0  L 14.06803594351733 0  C 14.64655541292255 0  15.147197261446301 0.21353113059114082  15.569961489088577 0.6405933917734336  C 15.992725716730853 1.067655652955718  16.20410783055199 1.5733872780400087  16 2.1577882670262976  L 16 14.025623735670939  L 21.110397946084724 9.06945380984491  C 21.522036799315362 8.653630029220047  22.02267864783911 8.44571813890762  22.61232349165597 8.44571813890762  C 23.19084296106119 8.44571813890762  23.69704749679076 8.653630029220047  24.130937098844672 9.06945380984491  L 25.38254172015404 10.33378287255563  Z " fill-rule="nonzero" fill="#73539d" stroke="none" transform="matrix(1 0 0 1 225 2294 )" />
  </g>
</svg>