<?xml version="1.0" encoding="utf-8"?>
<svg version="1.1" xmlns:xlink="http://www.w3.org/1999/xlink" width="17px" height="17px" xmlns="http://www.w3.org/2000/svg">
  <g transform="matrix(1 0 0 1 -125 -1407 )">
    <path d="M 16.96377840909091 13.172585227272728  C 16.987926136363637 13.228929924242422  17 13.313446969696967  17 13.426136363636363  C 17 13.643465909090908  16.95975378787879 13.927201704545453  16.879261363636363 14.27734375  C 16.79876893939394 14.627485795454547  16.714251893939394 14.903172348484848  16.625710227272727 15.104403409090908  C 16.456676136363637 15.50686553030303  15.965672348484851 15.933475378787879  15.152698863636363 16.384232954545453  C 14.396070075757578 16.794744318181817  13.647490530303031 17  12.906960227272728 17  C 12.689630681818182 17  12.47632575757576 16.985913825757574  12.267045454545453 16.957741477272727  C 12.057765151515152 16.92956912878788  11.826349431818183 16.879261363636363  11.572798295454547 16.806818181818183  C 11.31924715909091 16.734375  11.130089962121213 16.676017992424242  11.005326704545453 16.63174715909091  C 10.880563446969699 16.587476325757574  10.65719696969697 16.50497159090909  10.335227272727272 16.384232954545453  C 10.013257575757578 16.263494318181817  9.816051136363638 16.191051136363637  9.743607954545453 16.16690340909091  C 8.954782196969699 15.885179924242424  8.250473484848484 15.551136363636363  7.630681818181818 15.164772727272728  C 6.60842803030303 14.528882575757576  5.54592803030303 13.659564393939393  4.443181818181818 12.556818181818182  C 3.340435606060606 11.454071969696967  2.4711174242424248 10.39157196969697  1.8352272727272727 9.369318181818182  C 1.4488636363636362 8.749526515151516  1.114820075757576 8.045217803030301  0.8330965909090908 7.256392045454546  C 0.8089488636363636 7.183948863636362  0.7365056818181819 6.986742424242423  0.6157670454545455 6.664772727272728  C 0.49502840909090906 6.342803030303029  0.4125236742424243 6.119436553030301  0.36825284090909094 5.994673295454546  C 0.32398200757575757 5.869910037878787  0.265625 5.68075284090909  0.19318181818181818 5.427201704545454  C 0.12073863636363635 5.173650568181817  0.07043087121212123 4.942234848484848  0.04225852272727273 4.732954545454546  C 0.01408617424242424 4.52367424242424  0 4.310369318181818  0 4.093039772727272  C 0 3.352509469696969  0.20525568181818182 2.603929924242423  0.6157670454545455 1.847301136363636  C 1.0665246212121213 1.0343276515151487  1.4931344696969697 0.543323863636364  1.895596590909091 0.37428977272727204  C 2.096827651515152 0.28574810606060475  2.3725142045454546 0.20123106060605878  2.72265625 0.12073863636363602  C 3.0727982954545454 0.04024621212121138  3.356534090909091 0  3.5738636363636367 0  C 3.6865530303030307 0  3.771070075757576 0.01207386363636398  3.8274147727272725 0.03622159090909005  C 3.9723011363636367 0.08451704545454597  4.1856060606060606 0.39038825757575735  4.467329545454545 0.953835227272728  C 4.555871212121212 1.1067708333333308  4.6766098484848495 1.3241003787878767  4.829545454545455 1.605823863636364  C 4.9824810606060606 1.8875473484848473  5.123342803030304 2.143110795454546  5.252130681818182 2.372514204545454  C 5.3809185606060606 2.601917613636364  5.505681818181818 2.8172348484848473  5.626420454545455 3.01846590909091  C 5.650568181818182 3.0506628787878767  5.720999053030304 3.15127840909091  5.837713068181818 3.3203125  C 5.954427083333335 3.48934659090909  6.04095643939394 3.6322206439393936  6.097301136363636 3.74893465909091  C 6.153645833333334 3.865648674242423  6.181818181818182 3.9803503787878767  6.181818181818182 4.093039772727272  C 6.181818181818182 4.254024621212119  6.067116477272727 4.455255681818182  5.837713068181818 4.696732954545454  C 5.608309659090909 4.938210227272728  5.3587831439393945 5.159564393939394  5.089133522727273 5.360795454545454  C 4.819483901515151 5.562026515151513  4.569957386363636 5.7753314393939394  4.340553977272727 6.000710227272728  C 4.111150568181818 6.226089015151515  3.9964488636363633 6.41122159090909  3.9964488636363633 6.556107954545454  C 3.9964488636363633 6.628551136363636  4.01657196969697 6.719105113636364  4.056818181818182 6.827769886363636  C 4.0970643939393945 6.93643465909091  4.131273674242425 7.018939393939394  4.1594460227272725 7.07528409090909  C 4.187618371212122 7.131628787878787  4.243963068181818 7.228219696969696  4.328480113636364 7.365056818181818  C 4.412997159090909 7.5018939393939394  4.459280303030304 7.578361742424242  4.467329545454545 7.594460227272728  C 5.07907196969697 8.697206439393938  5.7793560606060606 9.642992424242422  6.568181818181818 10.431818181818182  C 7.357007575757576 11.220643939393938  8.302793560606062 11.92092803030303  9.405539772727272 12.532670454545457  C 9.421638257575758 12.540719696969695  9.49810606060606 12.587002840909092  9.634943181818182 12.671519886363637  C 9.771780303030303 12.756036931818182  9.868371212121213 12.812381628787877  9.92471590909091 12.840553977272728  C 9.981060606060607 12.868726325757576  10.06356534090909 12.902935606060606  10.172230113636363 12.943181818181818  C 10.280894886363637 12.98342803030303  10.371448863636363 13.003551136363637  10.443892045454547 13.003551136363637  C 10.58877840909091 13.003551136363637  10.773910984848484 12.888849431818182  10.999289772727272 12.659446022727272  C 11.22466856060606 12.430042613636363  11.437973484848488 12.180516098484848  11.639204545454547 11.910866477272728  C 11.840435606060607 11.641216856060602  12.061789772727272 11.391690340909092  12.303267045454547 11.162286931818182  C 12.544744318181818 10.932883522727272  12.74597537878788 10.818181818181818  12.906960227272728 10.818181818181818  C 13.019649621212123 10.818181818181818  13.134351325757578 10.846354166666666  13.25106534090909 10.902698863636363  C 13.367779356060607 10.959043560606059  13.51065340909091 11.045572916666666  13.6796875 11.162286931818182  C 13.84872159090909 11.279000946969695  13.949337121212123 11.349431818181818  13.98153409090909 11.373579545454543  C 14.182765151515152 11.494318181818182  14.398082386363637 11.619081439393938  14.627485795454547 11.747869318181818  C 14.856889204545453 11.876657196969695  15.112452651515152 12.017518939393938  15.394176136363637 12.170454545454543  C 15.675899621212123 12.32339015151515  15.89322916666667 12.444128787878787  16.046164772727273 12.532670454545457  C 16.609611742424242 12.814393939393938  16.915482954545453 13.027698863636363  16.96377840909091 13.172585227272728  Z " fill-rule="nonzero" fill="#ffffff" stroke="none" transform="matrix(1 0 0 1 125 1407 )" />
  </g>
</svg>