<?xml version="1.0" encoding="utf-8"?>
<svg version="1.1" xmlns:xlink="http://www.w3.org/1999/xlink" width="25px" height="27px" xmlns="http://www.w3.org/2000/svg">
  <g transform="matrix(1 0 0 1 -243 -1644 )">
    <path d="M 24.946732954545457 20.921164772727273  C 24.982244318181817 21.010653409090907  25 21.14488636363636  25 21.323863636363637  C 25 21.66903409090909  24.940814393939394 22.119673295454543  24.822443181818183 22.67578125  C 24.704071969696972 23.231889204545457  24.5797821969697 23.669744318181817  24.449573863636363 23.98934659090909  C 24.200994318181817 24.628551136363633  23.47892992424243 25.306107954545453  22.283380681818183 26.022017045454543  C 21.17069128787879 26.67400568181818  20.069839015151516 27  18.980823863636363 27  C 18.66122159090909 27  18.347537878787882 26.97762784090909  18.039772727272727 26.932883522727273  C 17.732007575757578 26.888139204545457  17.391690340909093 26.808238636363637  17.018821022727273 26.69318181818182  C 16.645951704545457 26.578125  16.36777935606061 26.48544034090909  16.184303977272727 26.415127840909093  C 16.00082859848485 26.34481534090909  15.672348484848486 26.213778409090907  15.198863636363635 26.022017045454543  C 14.72537878787879 25.83025568181818  14.43536931818182 25.715198863636363  14.328835227272727 25.676846590909093  C 13.168797348484851 25.22940340909091  12.133049242424242 24.698863636363637  11.221590909090908 24.085227272727273  C 9.718276515151516 23.07528409090909  8.155776515151516 21.694602272727273  6.534090909090909 19.94318181818182  C 4.912405303030303 18.19176136363636  3.633996212121213 16.504261363636367  2.6988636363636362 14.880681818181818  C 2.130681818181818 13.896306818181817  1.639441287878788 12.777698863636362  1.2251420454545454 11.524857954545455  C 1.1896306818181819 11.409801136363633  1.083096590909091 11.096590909090907  0.9055397727272728 10.585227272727273  C 0.7279829545454545 10.073863636363635  0.6066524621212122 9.719105113636362  0.5415482954545455 9.520951704545455  C 0.4764441287878788 9.322798295454543  0.390625 9.022372159090908  0.2840909090909091 8.619673295454545  C 0.17755681818181818 8.216974431818178  0.10357481060606062 7.849431818181817  0.06214488636363636 7.517045454545455  C 0.02071496212121212 7.184659090909088  0 6.845880681818182  0 6.500710227272727  C 0 5.324573863636362  0.3018465909090909 4.1356534090909065  0.9055397727272728 2.9339488636363633  C 1.5684185606060608 1.6427556818181777  2.195785984848485 0.8629261363636369  2.7876420454545454 0.5944602272727262  C 3.083570075757576 0.4538352272727252  3.488991477272727 0.3196022727272698  4.00390625 0.1917613636363631  C 4.5188210227272725 0.06392045454545336  4.936079545454546 0  5.255681818181818 0  C 5.421401515151516 0  5.545691287878789 0.01917613636363691  5.628551136363636 0.05752840909090773  C 5.841619318181818 0.13423295454545536  6.15530303030303 0.6200284090909087  6.5696022727272725 1.5149147727272738  C 6.699810606060606 1.757812499999996  6.877367424242426 2.1029829545454515  7.1022727272727275 2.5504261363636367  C 7.32717803030303 2.9978693181818166  7.534327651515152 3.4037642045454555  7.723721590909091 3.7681107954545445  C 7.91311553030303 4.132457386363637  8.096590909090908 4.474431818181817  8.274147727272728 4.794034090909093  C 8.309659090909092 4.8451704545454515  8.413233901515152 5.004971590909093  8.584872159090908 5.2734375  C 8.756510416666668 5.541903409090907  8.88375946969697 5.768821022727272  8.966619318181818 5.954190340909093  C 9.049479166666668 6.1395596590909065  9.090909090909092 6.3217329545454515  9.090909090909092 6.500710227272727  C 9.090909090909092 6.756392045454542  8.922230113636363 7.075994318181818  8.584872159090908 7.459517045454545  C 8.247514204545455 7.843039772727273  7.880563446969697 8.194602272727272  7.484019886363637 8.514204545454545  C 7.087476325757576 8.833806818181815  6.7205255681818175 9.172585227272727  6.383167613636363 9.530539772727273  C 6.045809659090909 9.888494318181817  5.877130681818182 10.182528409090908  5.877130681818182 10.412642045454545  C 5.877130681818182 10.527698863636363  5.906723484848485 10.671519886363637  5.965909090909091 10.844105113636363  C 6.025094696969697 11.016690340909092  6.075402462121213 11.147727272727272  6.116832386363636 11.237215909090908  C 6.158262310606061 11.326704545454543  6.241122159090909 11.480113636363637  6.3654119318181825 11.697443181818182  C 6.489701704545454 11.914772727272727  6.557765151515152 12.036221590909092  6.5696022727272725 12.061789772727273  C 7.469223484848484 13.813210227272725  8.499053030303031 15.315340909090907  9.659090909090908 16.56818181818182  C 10.819128787878789 17.821022727272723  12.209990530303031 18.933238636363633  13.831676136363635 19.904829545454547  C 13.855350378787879 19.917613636363633  13.967803030303031 19.99112215909091  14.169034090909092 20.125355113636363  C 14.370265151515152 20.25958806818182  14.512310606060607 20.34907670454545  14.595170454545455 20.393821022727273  C 14.678030303030305 20.43856534090909  14.799360795454545 20.492897727272727  14.959161931818182 20.55681818181818  C 15.118963068181818 20.620738636363633  15.252130681818182 20.652698863636363  15.358664772727273 20.652698863636363  C 15.571732954545455 20.652698863636363  15.843986742424242 20.47052556818182  16.175426136363637 20.106178977272727  C 16.50686553030303 19.741832386363637  16.820549242424246 19.345525568181817  17.116477272727273 18.917258522727273  C 17.412405303030305 18.488991477272723  17.737926136363637 18.09268465909091  18.093039772727273 17.72833806818182  C 18.44815340909091 17.363991477272727  18.74408143939394 17.18181818181818  18.980823863636363 17.18181818181818  C 19.146543560606062 17.18181818181818  19.31522253787879 17.226562499999996  19.486860795454543 17.316051136363637  C 19.658499053030305 17.40553977272727  19.868607954545457 17.542968749999996  20.1171875 17.72833806818182  C 20.365767045454543 17.913707386363633  20.513731060606062 18.02556818181818  20.561079545454543 18.063920454545453  C 20.857007575757578 18.25568181818182  21.173650568181817 18.453835227272723  21.511008522727273 18.65838068181818  C 21.848366477272727 18.862926136363633  22.224195075757578 19.086647727272723  22.638494318181817 19.329545454545453  C 23.052793560606062 19.57244318181818  23.372395833333336 19.764204545454543  23.597301136363637 19.904829545454547  C 24.42589962121212 20.352272727272723  24.875710227272727 20.691051136363637  24.946732954545457 20.921164772727273  Z " fill-rule="nonzero" fill="#73539d" stroke="none" fill-opacity="0.9921568627450981" transform="matrix(1 0 0 1 243 1644 )" />
  </g>
</svg>