<?xml version="1.0" encoding="utf-8"?>
<svg version="1.1" xmlns:xlink="http://www.w3.org/1999/xlink" width="24px" height="25px" xmlns="http://www.w3.org/2000/svg">
  <g transform="matrix(1 0 0 1 -17 -1644 )">
    <path d="M 21.16751269035533 3.9453125000000004  C 22.111675126903556 3.815104166666666  23.055837563451778 3.4895833333333295  24 2.9687500000000004  C 23.319796954314725 4.244791666666664  22.497461928934012 5.332031249999999  21.532994923857867 6.230468750000001  C 21.54314720812183 6.412760416666666  21.548223350253807 6.686197916666664  21.548223350253807 7.050781249999999  C 21.548223350253807 8.74348958333333  21.35532994923858 10.432942708333332  20.96954314720812 12.119140625  C 20.583756345177665 13.805338541666664  19.99746192893401 15.423177083333334  19.210659898477157 16.97265625  C 18.423857868020306 18.522135416666664  17.487309644670052 19.892578125  16.401015228426395 21.083984375  C 15.314720812182742 22.275390625  14.00507614213198 23.225911458333336  12.472081218274113 23.935546875  C 10.939086294416244 24.645182291666664  9.299492385786804 25  7.553299492385786 25  C 4.802030456852792 25  2.284263959390863 24.055989583333336  0 22.16796875  C 0.35532994923857886 22.220052083333336  0.7512690355329951 22.24609375  1.1878172588832487 22.24609375  C 3.4720812182741128 22.24609375  5.50761421319797 21.34765625  7.2944162436548226 19.55078125  C 6.228426395939087 19.524739583333332  5.274111675126904 19.10481770833333  4.431472081218274 18.291015625  C 3.588832487309645 17.477213541666664  3.0101522842639596 16.438802083333332  2.6954314720812182 15.17578125  C 3.030456852791878 15.240885416666666  3.3401015228426405 15.2734375  3.624365482233503 15.2734375  C 4.060913705583756 15.2734375  4.49238578680203 15.201822916666666  4.918781725888325 15.058593749999998  C 3.781725888324874 14.759114583333332  2.84010152284264 14.033203124999998  2.0939086294416245 12.880859375  C 1.3477157360406091 11.728515625  0.9746192893401018 10.390625  0.9746192893401014 8.867187500000002  L 0.9746192893401014 8.7890625  C 1.6649746192893402 9.283854166666666  2.4060913705583755 9.550781249999998  3.1979695431472086 9.589843749999998  C 2.527918781725888 9.016927083333332  1.9949238578680202 8.268229166666666  1.5989847715736043 7.343749999999999  C 1.2030456852791878 6.4192708333333295  1.0050761421319798 5.416666666666664  1.0050761421319798 4.335937500000001  C 1.0050761421319798 3.1901041666666656  1.2284263959390864 2.128906250000001  1.6751269035532994 1.152343750000001  C 2.903553299492386 3.0924479166666656  4.398477157360407 4.645182291666666  6.159898477157361 5.810546875  C 7.921319796954315 6.975911458333334  9.807106598984772 7.623697916666666  11.81725888324873 7.753906250000001  C 11.736040609137056 7.259114583333331  11.695431472081218 6.777343749999998  11.695431472081218 6.308593749999999  C 11.695431472081218 4.5638020833333295  12.175126903553299 3.076171875  13.13451776649746 1.8457031250000004  C 14.093908629441623 0.6152343750000011  15.253807106598988 0  16.614213197969544 0  C 18.035532994923862 0  19.233502538071065 0.6640625000000011  20.208121827411166 1.9921875000000004  C 21.314720812182742 1.7187499999999996  22.355329949238577 1.2109375000000004  23.329949238578678 0.4687500000000011  C 22.954314720812185 1.96614583333333  22.233502538071072 3.125  21.16751269035533 3.9453125000000004  Z " fill-rule="nonzero" fill="#73539d" stroke="none" transform="matrix(1 0 0 1 17 1644 )" />
  </g>
</svg>